<?xml version="1.0" standalone="no"?>
<!DOCTYPE svg PUBLIC "-//W3C//DTD SVG 1.1//EN" "http://www.w3.org/Graphics/SVG/1.1/DTD/svg11.dtd" >
<svg>
<metadata>
Created by FontForge 20090622 at Thu Feb 22 05:55:22 2018
 By deploy user
Copyright 2010 by (URW)++ Design &#38; Development GmbH
</metadata>
<defs>
<font id="VenusURW-Med" horiz-adv-x="500" >
  <font-face 
    font-family="VenusURWMed"
    font-weight="500"
    font-stretch="normal"
    units-per-em="1000"
    panose-1="0 0 6 0 0 0 0 0 0 0"
    ascent="667"
    descent="-333"
    x-height="461"
    cap-height="667"
    bbox="-134 -321 1226 912"
    underline-thickness="72"
    underline-position="-40"
    unicode-range="U+0020-U+FB02"
  />
<missing-glyph horiz-adv-x="240" 
 />
    <glyph glyph-name="fi" unicode="fi" horiz-adv-x="372" 
d="M313 450v-450h-73v390h-75v-390h-76v390h-75v60h75v127q0 53 23 71q28 23 87 23h2l35 -2v-64q-16 3 -28 3q-19 0 -31 -10.5t-12 -26.5v-121h148z" />
    <glyph glyph-name="fl" unicode="fl" horiz-adv-x="369" 
d="M235 669h74v-669h-74v390h-70v-390h-76v390h-75v60h75v127q0 53 23 71q28 23 87 23h2q12 0 34 -2zM235 450v155q-21 3 -25 3q-20 0 -32.5 -10t-12.5 -27v-121h70z" />
    <glyph glyph-name=".notdef" horiz-adv-x="240" 
 />
    <glyph glyph-name=".null" horiz-adv-x="0" 
 />
    <glyph glyph-name="nonmarkingreturn" horiz-adv-x="333" 
 />
    <glyph glyph-name="space" unicode=" " horiz-adv-x="240" 
 />
    <glyph glyph-name="exclam" unicode="!" horiz-adv-x="197" 
d="M81 152l-9 518h87l-9 -518h-69zM77 0v110h78v-110h-78z" />
    <glyph glyph-name="quotedbl" unicode="&#x22;" horiz-adv-x="385" 
d="M148 393h-46l-16 274h78zM284 393h-46l-16 274h78z" />
    <glyph glyph-name="numbersign" unicode="#" horiz-adv-x="650" 
d="M543 265v-48h-109l-32 -217h-49l32 217h-147l-34 -217h-48l33 217h-108v48h116l22 148h-111v48h118l31 206h47l-30 -206h147l30 206h49l-30 -206h98v-48h-105l-21 -148h101zM414 413h-147l-22 -148h147z" />
    <glyph glyph-name="dollar" unicode="$" horiz-adv-x="537" 
d="M6 220l93 21q-1 -12 -1 -27q0 -60 34 -98q38 -41 109 -50v252q-121 28 -165 68q-50 45 -50 114q0 40 20.5 79.5t53.5 63.5q46 33 141 38v81h53l1 -84q71 -9 116.5 -48.5t69.5 -113.5l-71 -72q-7 61 -34.5 97t-81.5 56v-203q74 -19 108 -33t61 -37q58 -47 58 -136
q0 -95 -79 -155q-34 -25 -65.5 -35.5t-82.5 -13.5v-81h-53v81q-109 11 -167 69t-68 167zM240 408l1 196q-59 -3 -92 -27q-35 -26 -35 -66q0 -37 27.5 -59t98.5 -44zM294 301l1 -237q67 12 95 34q38 30 38 82q0 44 -29 70t-105 51z" />
    <glyph glyph-name="percent" unicode="%" horiz-adv-x="870" 
d="M191 649q76 0 120 -58.5t44 -159.5q0 -124 -61 -179q-43 -38 -101 -38q-73 0 -118.5 59.5t-45.5 156.5q0 101 43.5 160t118.5 59zM191 587q-44 0 -66 -38q-26 -49 -26 -121q0 -71 24.5 -112.5t65.5 -41.5q95 0 95 160q0 74 -24 113.5t-69 39.5zM680 426q77 0 122.5 -60.5
t45.5 -161.5q0 -98 -44.5 -155.5t-121.5 -57.5q-74 0 -117 58.5t-43 158.5t42.5 159t115.5 59zM682 365q-90 0 -90 -155q0 -158 89 -158q95 0 95 164q0 71 -24.5 110t-69.5 39zM200 0l401 640h73l-402 -640h-72z" />
    <glyph glyph-name="ampersand" unicode="&#x26;" horiz-adv-x="578" 
d="M556 75v-88q-60 -1 -96 9t-74 37q-70 -43 -142 -43q-90 0 -146.5 52.5t-56.5 136.5q0 63 32.5 108t117.5 100q-28 73 -28 113q0 57 32.5 94t83.5 37q49 0 80 -31t31 -81q0 -46 -24 -82.5t-78 -71.5q3 -7 10.5 -22.5t10.5 -23.5l17.5 -37.5t14 -29.5t6.5 -14l27 -52
l20 -40q51 72 48 159l75 -65q-21 -83 -76 -149q36 -22 68 -22q15 0 47 6zM220 327q-51 -37 -72 -70.5t-21 -79.5q0 -53 33 -85t89 -32q44 0 88 30q-68 107 -117 237zM263 423q35 37 45 54t10 39q0 23 -10.5 37t-28.5 14q-17 0 -29 -15.5t-12 -37.5q0 -32 25 -91z" />
    <glyph glyph-name="quotesingle" unicode="'" horiz-adv-x="193" 
d="M119 393h-46l-16 274h78z" />
    <glyph glyph-name="parenleft" unicode="(" horiz-adv-x="278" 
d="M258 690v-108q-52 -38 -84 -117q-41 -95 -41 -215q0 -159 69 -257q21 -29 54 -61v-108q-107 90 -155 191.5t-48 238.5q0 180 87 317q25 38 48.5 62t69.5 57z" />
    <glyph glyph-name="parenright" unicode=")" horiz-adv-x="276" 
d="M24 -175v107q29 23 47 48t38 71q39 88 39 211q0 110 -27.5 183t-94.5 137v110q53 -44 81 -76t53 -77q70 -124 70 -273q0 -142 -56 -265q-30 -63 -62 -100.5t-88 -75.5z" />
    <glyph glyph-name="asterisk" unicode="*" horiz-adv-x="354" 
d="M29 447v141l140 -61l-61 140h138l-61 -140l141 61v-141l-141 63l61 -144h-138l61 144z" />
    <glyph glyph-name="plus" unicode="+" 
d="M10 373h209v196h63v-196h209v-63h-209v-196h-63v196h-209v63z" />
    <glyph glyph-name="comma" unicode="," horiz-adv-x="157" 
d="M33 113h90l-1 -136q1 -16 -4.5 -28.5t-23.5 -39.5q-7 -10 -25 -40l-35 27l10 15q31 47 31 60v29h-42v113z" />
    <glyph glyph-name="hyphen" unicode="-" horiz-adv-x="302" 
d="M32 231v63h234v-63h-234z" />
    <glyph glyph-name="period" unicode="." horiz-adv-x="157" 
d="M34 0v113h93v-113h-93z" />
    <glyph glyph-name="slash" unicode="/" horiz-adv-x="380" 
d="M16 0l281 668h72l-282 -668h-71z" />
    <glyph glyph-name="zero" unicode="0" horiz-adv-x="537" 
d="M264 649q89 0 155 -74q35 -40 55.5 -108t20.5 -147q0 -147 -63.5 -239.5t-164.5 -92.5q-91 0 -157 75q-34 38 -55 108.5t-21 146.5q0 163 82 257q65 74 148 74zM266 574q-65 0 -104 -70.5t-39 -188.5q0 -115 39.5 -184t105.5 -69q65 0 103 70t38 190q0 113 -39.5 182.5
t-103.5 69.5z" />
    <glyph glyph-name="one" unicode="1" horiz-adv-x="537" 
d="M106 438v72q44 15 82.5 55.5t52.5 85.5h81v-651h-81v532q-57 -82 -135 -94z" />
    <glyph glyph-name="two" unicode="2" horiz-adv-x="537" 
d="M464 0l-410 -1q10 74 37 132q31 52 59 77.5t158 119.5q84 60 84 141q0 50 -33 81.5t-86 31.5t-89 -32.5t-36 -80.5q0 -28 21 -71l-78 -40q-22 56 -22 104q0 89 54.5 139.5t151.5 50.5q94 0 148.5 -52t54.5 -141q0 -62 -27.5 -106.5t-98.5 -95.5l-113 -82
q-36 -27 -51.5 -46t-33.5 -55h310v-74z" />
    <glyph glyph-name="three" unicode="3" horiz-adv-x="537" 
d="M77 254l80 -53q-14 -27 -14 -49q0 -43 28 -65q38 -30 88 -30q56 0 92.5 38t36.5 97q0 60 -41.5 95.5t-111.5 35.5q-11 0 -43 -3v79q56 -3 69 -3q40 0 65 13q47 26 47 81q0 41 -31.5 66.5t-80.5 25.5q-47 0 -76.5 -23t-29.5 -60q0 -13 7 -40l-83 -32q-3 41 -3 54
q0 81 48.5 125t137.5 44t139 -44.5t50 -123.5q0 -48 -18 -76.5t-66 -55.5q48 -20 70 -49q35 -48 35 -116q0 -90 -58.5 -144.5t-154.5 -54.5q-93 0 -148.5 47t-55.5 126q0 37 22 95z" />
    <glyph glyph-name="four" unicode="4" horiz-adv-x="537" 
d="M37 152v58l290 440h63v-427h101v-71h-101v-152h-81v152h-272zM133 223h176v282l-16 -29z" />
    <glyph glyph-name="five" unicode="5" horiz-adv-x="537" 
d="M46 156l81 45q3 -62 27 -97q37 -51 101 -51t103 49t39 128q0 78 -37.5 126t-98.5 48q-48 0 -84.5 -30t-49.5 -81l-62 7l22 341l341 -1v-71h-272l-13 -154q31 31 60.5 43.5t71.5 12.5q91 0 148.5 -67.5t57.5 -174.5q0 -113 -63 -178t-172 -65q-95 0 -146 56
q-35 37 -54 114z" />
    <glyph glyph-name="six" unicode="6" horiz-adv-x="537" 
d="M471 529l-72 -44q-23 99 -110 99q-70 0 -105 -51q-33 -49 -47 -149q33 46 67 65t83 19q91 0 147 -65t56 -171q0 -110 -59 -177t-156 -67q-58 0 -107.5 28t-77.5 77q-40 72 -40 197q0 178 60 266q66 95 177 95q81 0 133 -47q24 -23 51 -75zM275 397q-64 0 -100 -44.5
t-36 -122.5t31 -118q41 -54 106 -54q50 0 90 40q41 39 41 131q0 77 -35.5 122.5t-96.5 45.5z" />
    <glyph glyph-name="seven" unicode="7" horiz-adv-x="537" 
d="M40 566v74h440v-64q-90 -109 -147 -248t-90 -328h-91q10 83 59 238q56 175 171 328h-342z" />
    <glyph glyph-name="eight" unicode="8" horiz-adv-x="537" 
d="M358 355q67 -25 95 -57q40 -46 40 -112q0 -85 -65 -141.5t-163 -56.5q-99 0 -162.5 57t-63.5 146q0 69 40 112q25 29 94 53q-50 16 -74 43q-35 41 -35 94q0 68 56 112.5t143 44.5q88 0 145 -45t57 -115q0 -55 -37 -95q-20 -20 -70 -40zM269 316q-62 0 -102 -36.5
t-40 -92.5q0 -55 39.5 -91t99.5 -36t99.5 36.5t39.5 91.5q0 56 -38 92t-98 36zM266 584q-50 0 -83.5 -27t-33.5 -67q0 -44 33 -71t86 -27q51 0 82 26t31 69t-32 70t-83 27z" />
    <glyph glyph-name="nine" unicode="9" horiz-adv-x="537" 
d="M56 111l76 42q10 -42 30 -63q35 -35 83 -35q77 0 117 82q21 39 34 133q-26 -46 -50 -65q-45 -32 -107 -32q-90 0 -146.5 65t-56.5 169q0 109 59.5 177t154.5 68q121 0 185 -111q43 -79 43 -208q0 -160 -62 -254q-28 -41 -76 -66.5t-98 -25.5q-122 0 -186 124zM250 578
q-59 0 -95 -46t-36 -122t35.5 -121t95.5 -45q39 0 72 21q67 42 67 137q0 77 -39 126.5t-100 49.5z" />
    <glyph glyph-name="colon" unicode=":" horiz-adv-x="197" 
d="M73 0v113h91v-113h-91zM73 333v115h92l-1 -115h-91z" />
    <glyph glyph-name="semicolon" unicode=";" horiz-adv-x="197" 
d="M71 113h91v-135q1 -17 -9 -37.5t-45 -71.5l-36 25q42 59 42 76v30h-43v113zM73 334v114h91v-114h-91z" />
    <glyph glyph-name="less" unicode="&#x3c;" 
d="M491 579v-68l-400 -173l400 -170v-68l-481 203v69z" />
    <glyph glyph-name="equal" unicode="=" 
d="M10 447h481v-63h-481v63zM10 299h481v-63h-481v63z" />
    <glyph glyph-name="greater" unicode="&#x3e;" 
d="M10 100v68l400 173l-400 170v68l481 -203v-69z" />
    <glyph glyph-name="question" unicode="?" horiz-adv-x="433" 
d="M242 150h-83l1 76q1 40 11 57t61 68q70 69 87.5 95t17.5 64q0 43 -29 71.5t-73 28.5q-47 0 -77 -30t-30 -77q0 -22 10 -56l-86 33q0 59 15 97q40 105 166 105q80 0 131 -48t51 -123q0 -51 -26.5 -96.5t-88.5 -103.5q-35 -32 -46.5 -50t-11.5 -40v-71zM160 0v111h85v-111
h-85z" />
    <glyph glyph-name="at" unicode="@" horiz-adv-x="701" 
d="M256 377l-53 29q31 98 139 98q60 0 94.5 -29t34.5 -79v-171q0 -33 30 -33q35 0 75 37q64 62 64 156q0 107 -78.5 178t-197.5 71q-127 0 -213.5 -87t-86.5 -215q0 -127 87 -213.5t215 -86.5q65 0 114 22.5t102 77.5h57q-63 -79 -125 -111t-150 -32q-154 0 -254.5 97
t-100.5 245t101 247.5t251 99.5q139 0 229.5 -82t90.5 -207q0 -107 -73 -183q-62 -67 -125 -67q-29 0 -49 11q-16 7 -20 35q-44 -52 -106 -52q-47 0 -78.5 32.5t-31.5 80.5q0 42 23.5 68.5t75.5 41.5q75 21 93 35q14 9 14 24q0 16 -16.5 27t-41.5 11q-35 0 -56 -17.5
t-34 -58.5zM413 278v65q-29 -16 -42.5 -21.5t-61.5 -19.5q-48 -15 -48 -57q0 -27 18.5 -44.5t46.5 -17.5q37 0 62 27.5t25 67.5z" />
    <glyph glyph-name="A" unicode="A" horiz-adv-x="614" 
d="M1 0l266 667h81l265 -667h-88l-72 183l-291 1l-74 -184h-87zM193 261h228l-96 249l-18 51l-16 -46z" />
    <glyph glyph-name="B" unicode="B" horiz-adv-x="633" 
d="M70 0v667h263q103 0 147 -25q32 -18 50.5 -52t18.5 -74q0 -47 -21.5 -76t-73.5 -51q58 -19 85 -46q50 -50 50 -137q0 -57 -24.5 -103t-68.5 -71q-56 -32 -158 -32h-268zM157 345v-264h193q68 0 107 34.5t39 94.5q0 61 -41.5 98t-110.5 37h-187zM157 429h181q64 0 92 19
t28 62q0 76 -94 76h-207v-157z" />
    <glyph glyph-name="C" unicode="C" horiz-adv-x="617" 
d="M592 537l-66 -66q-23 58 -55 86q-54 46 -127 46q-89 0 -147 -64q-29 -32 -46.5 -87.5t-17.5 -117.5q0 -124 56.5 -196.5t152.5 -72.5q78 0 135 51q19 17 30.5 35.5t25.5 53.5l64 -75q-39 -62 -82 -92q-79 -54 -178 -54q-129 0 -212 88q-40 43 -62.5 113.5t-22.5 151.5
q0 158 83 251.5t223 93.5q74 0 131 -30q40 -20 65 -45t50 -70z" />
    <glyph glyph-name="D" unicode="D" horiz-adv-x="661" 
d="M69 0v667h247q102 0 154 -29q67 -39 105 -120t38 -183q0 -199 -116 -286q-36 -27 -79 -38t-113 -11h-236zM156 83l144 -1q68 0 102 11t60 42q57 70 57 202q0 99 -35 160q-51 87 -175 87h-153v-501z" />
    <glyph glyph-name="E" unicode="E" horiz-adv-x="499" 
d="M69 0v667h400v-80h-314v-158h283v-81h-283v-267h314v-81h-400z" />
    <glyph glyph-name="F" unicode="F" horiz-adv-x="459" 
d="M68 0v667h385v-81h-300v-156h241v-81h-241v-349h-85z" />
    <glyph glyph-name="G" unicode="G" horiz-adv-x="698" 
d="M609 544l-68 -63q-21 54 -50 79q-49 43 -130 43q-101 0 -163 -73t-62 -193q0 -121 64.5 -195.5t169.5 -74.5q52 0 91.5 17t84.5 58v198h-265v80h351v-308q-60 -68 -123.5 -98.5t-145.5 -30.5q-146 0 -233 98q-41 46 -64.5 115t-23.5 143q0 84 27 155.5t75 115.5
q83 74 214 74q128 0 198 -70q25 -24 53 -70z" />
    <glyph glyph-name="H" unicode="H" horiz-adv-x="656" 
d="M68 0v667h86v-228h346v228h87v-667h-87v356h-346v-356h-86z" />
    <glyph glyph-name="I" unicode="I" horiz-adv-x="222" 
d="M68 0v667h86v-667h-86z" />
    <glyph glyph-name="J" unicode="J" horiz-adv-x="433" 
d="M23 199l91 57q-11 -38 -11 -72q0 -126 92 -126q45 0 69.5 27.5t24.5 77.5v504h85v-483q0 -83 -23 -122q-23 -37 -65 -58.5t-92 -21.5q-95 0 -139 70q-33 54 -33 117q0 17 1 30z" />
    <glyph glyph-name="K" unicode="K" horiz-adv-x="614" 
d="M65 0v667h85v-304l328 304l118 -1l-208 -194l206 -472h-91l-180 414l-173 -163v-251h-85z" />
    <glyph glyph-name="L" unicode="L" horiz-adv-x="499" 
d="M66 0v667h85v-586h334v-81h-419z" />
    <glyph glyph-name="M" unicode="M" horiz-adv-x="788" 
d="M68 0v667h141l187 -547l187 547h142v-667h-83v601l-206 -601h-77l-208 601v-601h-83z" />
    <glyph glyph-name="N" unicode="N" horiz-adv-x="670" 
d="M68 0v667h122l294 -490l36 -70v560h85v-667h-109l-303 505l-40 72v-577h-85z" />
    <glyph glyph-name="O" unicode="O" horiz-adv-x="700" 
d="M344 683q143 0 228 -96.5t85 -258.5q0 -158 -83.5 -251.5t-225.5 -93.5q-138 0 -221 93.5t-83 249.5q0 164 81 260.5t219 96.5zM344 603q-98 0 -151.5 -73.5t-53.5 -206.5q0 -124 55 -192.5t155 -68.5q96 0 152 64q28 31 44.5 86.5t16.5 120.5q0 125 -58.5 197.5
t-159.5 72.5z" />
    <glyph glyph-name="P" unicode="P" horiz-adv-x="550" 
d="M67 0v667h249q100 0 151 -29q80 -44 80 -158q0 -104 -71 -152q-47 -32 -120 -32h-202v-296h-87zM154 376h188q120 0 120 105t-127 105h-181v-210z" />
    <glyph glyph-name="Q" unicode="Q" horiz-adv-x="701" 
d="M600 -51l-77 -59q-35 15 -59.5 34t-65.5 65q-32 -6 -56 -6q-82 0 -154 41q-68 40 -106.5 120t-38.5 183q0 125 55 220q77 136 244 136q139 0 229 -96q40 -43 63 -112t23 -147q0 -140 -69 -234q-21 -29 -42 -46.5t-60 -39.5q49 -41 114 -59zM257 137l88 41
q45 -36 61.5 -55t26.5 -46q38 18 57.5 36t36.5 53q37 71 37 169q0 148 -76 216q-61 53 -142 53q-98 0 -152 -73.5t-54 -209.5q0 -138 66 -204q56 -54 120 -54l22 2q-24 30 -40.5 43t-50.5 29z" />
    <glyph glyph-name="R" unicode="R" horiz-adv-x="614" 
d="M65 0v667h308q80 0 124 -24q34 -20 54 -58.5t20 -85.5q0 -80 -50 -119q-36 -28 -117 -41l191 -339h-99l-182 334h-165v-334h-84zM149 417h241q95 0 95 83q0 43 -26 66t-75 23h-235v-172z" />
    <glyph glyph-name="S" unicode="S" horiz-adv-x="577" 
d="M20 153l80 70q3 -54 33 -92q54 -72 158 -72q74 0 119.5 35.5t45.5 94.5q0 48 -34 74q-22 17 -54.5 29t-108.5 32q-108 29 -150 62q-53 43 -53 116q0 82 63 132t166 50q81 0 145 -36q37 -22 58.5 -46.5t41.5 -66.5l-76 -62q-13 58 -40 87q-46 49 -134 49q-61 0 -99 -28.5
t-38 -74.5q0 -27 15 -45q13 -15 50.5 -31t81.5 -25q167 -35 218 -105q33 -47 33 -107q0 -95 -69 -152.5t-182 -57.5q-65 0 -122.5 22.5t-95.5 63.5q-25 28 -52 84z" />
    <glyph glyph-name="T" unicode="T" horiz-adv-x="510" 
d="M4 586v81h502v-81h-207v-586h-87v586h-208z" />
    <glyph glyph-name="U" unicode="U" horiz-adv-x="630" 
d="M69 667h86v-435q0 -80 43 -125t119 -45q74 0 119.5 44t45.5 115v446h85v-446q0 -118 -68 -178q-69 -59 -179 -59q-74 0 -133 28.5t-87 78.5q-31 53 -31 141v435z" />
    <glyph glyph-name="V" unicode="V" horiz-adv-x="574" 
d="M0 667h85l198 -551l197 551h90l-245 -667h-84z" />
    <glyph glyph-name="W" unicode="W" horiz-adv-x="825" 
d="M4 667h84l145 -535l138 535h87l140 -535l143 535h85l-186 -667h-90l-135 529l-136 -529h-90z" />
    <glyph glyph-name="X" unicode="X" horiz-adv-x="547" 
d="M1 0l230 356l-198 311h99l145 -234l150 234h98l-201 -310l227 -357h-100l-174 283l-178 -283h-98z" />
    <glyph glyph-name="Y" unicode="Y" horiz-adv-x="558" 
d="M231 280l-227 387l91 -1l181 -306l183 307l94 -1l-237 -386v-280h-85v280z" />
    <glyph glyph-name="Z" unicode="Z" horiz-adv-x="539" 
d="M11 0v38l379 549h-327v80h453v-43l-375 -548h376l-1 -76h-505z" />
    <glyph glyph-name="bracketleft" unicode="[" horiz-adv-x="286" 
d="M267 667v-63h-106v-710h106v-63h-180v836h180z" />
    <glyph glyph-name="backslash" unicode="\" horiz-adv-x="380" 
d="M369 0h-71l-282 668h72z" />
    <glyph glyph-name="bracketright" unicode="]" horiz-adv-x="286" 
d="M199 667v-836h-180v63h106v709h-106v64h180z" />
    <glyph glyph-name="asciicircum" unicode="^" 
d="M92 379h-71l192 288h73l193 -288h-71l-159 232z" />
    <glyph glyph-name="underscore" unicode="_" 
d="M500 -76v-72h-500v72h500z" />
    <glyph glyph-name="grave" unicode="`" horiz-adv-x="195" 
d="M33 669h88l41 -140h-49z" />
    <glyph glyph-name="a" unicode="a" horiz-adv-x="433" 
d="M96 305l-69 37q15 51 49 81q54 47 131 47q89 0 135 -49q32 -34 32 -92v-221q0 -47 47 -44h5v-67l-43 1q-45 1 -61.5 13t-21.5 45q-57 -68 -138 -68q-60 0 -101 42t-41 104q0 51 29 89q27 33 99 54q67 19 86 26t36 20q17 14 17 31q0 21 -21.5 35t-53.5 14q-47 0 -78 -29
q-22 -19 -38 -69zM299 176v84q-35 -19 -53 -26t-82 -27q-63 -19 -63 -73q0 -36 23.5 -58.5t61.5 -22.5q48 0 80.5 35.5t32.5 87.5z" />
    <glyph glyph-name="b" unicode="b" 
d="M64 0v667h75v-262q35 37 63.5 52t66.5 15q84 0 137.5 -67.5t53.5 -173.5q0 -107 -51 -174.5t-131 -67.5q-53 0 -96 32q-19 13 -43 51v-72h-75zM258 401q-54 0 -86 -45.5t-32 -122.5q0 -76 33 -122t88 -46t88.5 45t33.5 118q0 79 -34 126t-91 47z" />
    <glyph glyph-name="c" unicode="c" horiz-adv-x="423" 
d="M421 329l-76 -29q-3 46 -22 70q-30 42 -82 42q-57 0 -91 -49t-34 -132t35 -131.5t96 -48.5q94 0 111 115l68 -41q-17 -55 -44 -83q-51 -54 -139 -54q-95 0 -150.5 66t-55.5 179t53 177t147 64q85 0 136 -54q30 -31 48 -91z" />
    <glyph glyph-name="d" unicode="d" 
d="M360 400v267h74v-667h-73v72q-52 -83 -138 -83q-82 0 -133.5 69t-51.5 178q0 103 53.5 169.5t135.5 66.5q40 0 69 -15.5t64 -56.5zM241 402q-55 0 -89 -46.5t-34 -123.5q0 -76 33 -122t88 -46q54 0 87.5 46.5t33.5 121.5q0 76 -33 123t-86 47z" />
    <glyph glyph-name="e" unicode="e" horiz-adv-x="460" 
d="M424 204l-306 1q4 -68 30 -106q32 -47 91 -47q53 0 82 32q18 20 36 73l67 -48q-37 -64 -80.5 -92.5t-104.5 -28.5q-88 0 -147 62q-55 58 -55 178q0 114 51.5 179t141.5 65q92 0 143.5 -64t51.5 -177q0 -15 -1 -27zM119 266l221 1q0 55 -21 88q-33 51 -91 51
q-93 0 -109 -140z" />
    <glyph glyph-name="f" unicode="f" horiz-adv-x="262" 
d="M14 390v60h75v127q0 53 23 71q28 23 87 23h2l35 -2v-64q-16 3 -28 3q-19 0 -31 -10.5t-12 -26.5v-121h76v-60h-76v-390h-76v390h-75z" />
    <glyph glyph-name="g" unicode="g" horiz-adv-x="502" 
d="M435 461v-472q0 -65 -10.5 -101t-35.5 -58q-48 -43 -155 -43q-80 0 -125.5 37t-45.5 102q0 30 16 60l71 -43q-6 -20 -6 -29q0 -29 25.5 -45.5t68.5 -16.5q67 0 98 33q24 26 24 92v88q-60 -75 -143 -75q-67 0 -117 53q-27 29 -43 82t-16 115q0 101 52.5 166t133.5 65
q76 0 133 -71v61h75zM239 408q-57 0 -88 -45t-31 -128t31.5 -130.5t86.5 -47.5q56 0 88 45.5t32 125.5q0 85 -31.5 132.5t-87.5 47.5z" />
    <glyph glyph-name="h" unicode="h" horiz-adv-x="473" 
d="M66 0v669h73v-271q34 41 63.5 57.5t68.5 16.5q82 0 121 -68q21 -36 21 -108v-296h-74v280q0 119 -86 119q-47 0 -80.5 -35t-33.5 -84v-280h-73z" />
    <glyph glyph-name="i" unicode="i" horiz-adv-x="196" 
d="M63 0v461h73v-461h-73zM63 536v108h73v-108h-73z" />
    <glyph glyph-name="j" unicode="j" horiz-adv-x="198" 
d="M-30 -209v78q32 -9 48 -9q48 0 48 49v552h74v-545q0 -47 -2 -60.5t-10 -29.5q-22 -40 -95 -40q-26 0 -63 5zM66 536v108h74v-108h-74z" />
    <glyph glyph-name="k" unicode="k" horiz-adv-x="433" 
d="M64 0v667h75v-373l170 167h98l-133 -131l156 -331l-78 1l-134 276l-79 -76v-200h-75z" />
    <glyph glyph-name="l" unicode="l" horiz-adv-x="197" 
d="M63 0v667h74v-667h-74z" />
    <glyph glyph-name="m" unicode="m" horiz-adv-x="709" 
d="M63 461h75v-62q28 40 55.5 57t65.5 17q41 0 70 -19t55 -65q27 45 58 64.5t75 19.5q65 0 98.5 -42t33.5 -122v-309h-74v299q0 107 -76 107q-44 0 -74 -37t-30 -90v-279h-76v314q0 42 -21 67t-56 25q-41 0 -72 -36t-31 -83v-287h-76v461z" />
    <glyph glyph-name="n" unicode="n" horiz-adv-x="472" 
d="M62 0v461h74v-66q27 41 57.5 59t74.5 18q85 0 124 -66q19 -34 19 -100v-306h-74v272q0 62 -16 91q-22 40 -71 40q-44 0 -78.5 -37t-34.5 -86v-280h-75z" />
    <glyph glyph-name="o" unicode="o" horiz-adv-x="472" 
d="M236 470q94 0 148.5 -66t54.5 -181q0 -130 -69 -190q-57 -49 -134 -49q-93 0 -148 67t-55 180q0 109 55 174t148 65zM238 408q-55 0 -89 -50t-34 -132q0 -85 34 -132.5t94 -47.5q51 0 83 48.5t32 125.5q0 87 -32 137.5t-88 50.5z" />
    <glyph glyph-name="p" unicode="p" 
d="M65 -206v667h74v-68q56 79 137 79q98 0 151 -95q33 -60 33 -147q0 -88 -34 -147q-25 -43 -66 -68.5t-88 -25.5q-43 0 -74 18t-59 59v-272h-74zM260 396q-54 0 -87 -45t-33 -118q0 -79 32.5 -126t88.5 -47q54 0 87 47t33 124q0 101 -55 142q-32 23 -66 23z" />
    <glyph glyph-name="q" unicode="q" horiz-adv-x="499" 
d="M357 390v71h75v-666h-75v270q-49 -76 -131 -76q-83 0 -136.5 67.5t-53.5 171.5q0 107 51 175.5t132 68.5q84 0 138 -82zM235 396q-55 0 -87.5 -44t-32.5 -119q0 -79 33.5 -125.5t90.5 -46.5q48 0 79 34q17 19 28.5 57t11.5 75q0 76 -33.5 122.5t-89.5 46.5z" />
    <glyph glyph-name="r" unicode="r" horiz-adv-x="301" 
d="M63 0v461h73v-69q51 78 116 78h2l44 -5v-80q-35 8 -50 8q-46 0 -79 -38.5t-33 -93.5v-261h-73z" />
    <glyph glyph-name="s" unicode="s" horiz-adv-x="421" 
d="M16 127l72 34q1 -50 34 -79t89 -29q45 0 74.5 19.5t29.5 50.5q0 28 -23 46q-17 14 -34 20.5t-99 31.5q-119 35 -119 126q0 55 45 91t113 36q85 0 137 -49q26 -24 40 -79l-71 -33q-9 50 -30 71q-29 27 -78 27q-35 0 -55.5 -15t-20.5 -42q0 -29 29.5 -47.5t102.5 -36.5
q69 -17 105.5 -53.5t36.5 -87.5q0 -63 -51.5 -103t-131.5 -40q-97 0 -151 57q-27 29 -44 84z" />
    <glyph glyph-name="t" unicode="t" horiz-adv-x="264" 
d="M7 391v61h77v144l76 80v-224h74v-61h-74v-271q0 -37 8 -50.5t30 -13.5q9 0 32 4v-67h-54q-63 0 -80 33q-12 23 -12 85v280h-77z" />
    <glyph glyph-name="u" unicode="u" horiz-adv-x="471" 
d="M59 461h74v-317q0 -41 23 -65t62 -24q50 0 84 40t34 98v268h73v-461h-73v59q-57 -71 -136 -71q-38 0 -70 17t-48 46q-23 39 -23 119v291z" />
    <glyph glyph-name="v" unicode="v" horiz-adv-x="393" 
d="M12 461h78l93 -295l16 -51l14 51l90 295h81l-149 -461h-75z" />
    <glyph glyph-name="w" unicode="w" horiz-adv-x="590" 
d="M9 461h74l89 -360l82 360h83l84 -366l89 366l74 1l-122 -462h-84l-70 291l-12 70l-10 -64l-70 -297h-85z" />
    <glyph glyph-name="x" unicode="x" horiz-adv-x="377" 
d="M11 0l134 252l-117 209h83l78 -134l75 134h86l-118 -209l134 -252h-84l-95 188l-92 -188h-84z" />
    <glyph glyph-name="y" unicode="y" horiz-adv-x="474" 
d="M80 -20l66 -40q-8 -25 -8 -38q0 -26 25.5 -43t65.5 -17q57 0 87 30q21 20 21 68v129q-34 -42 -66 -60t-73 -18q-78 0 -113 62q-20 36 -20 105v303h74v-303q0 -55 23 -75q22 -21 57 -21q50 0 85 40.5t35 99.5v259h74v-538q0 -66 -38 -98q-49 -41 -143 -41q-81 0 -124.5 32
t-43.5 91q0 26 16 73z" />
    <glyph glyph-name="z" unicode="z" horiz-adv-x="382" 
d="M29 0v51l205 346h-192v64h302v-28l-223 -373h227v-60h-319z" />
    <glyph glyph-name="braceleft" unicode="{" horiz-adv-x="286" 
d="M168 529v-163q0 -49 -13 -73.5t-48 -43.5q34 -19 47.5 -45.5t13.5 -73.5v-158q0 -65 16.5 -82.5t79.5 -17.5v-56h-23q-77 0 -110 34t-33 113v164q0 44 -12.5 65t-44.5 29v55q32 9 44.5 29.5t12.5 65.5v174q0 73 34 105.5t109 32.5q12 0 23 -1v-55q-63 -2 -79.5 -18.5
t-16.5 -79.5z" />
    <glyph glyph-name="bar" unicode="|" 
d="M219 667h61v-839h-61v839z" />
    <glyph glyph-name="braceright" unicode="}" horiz-adv-x="286" 
d="M118 -31v164q0 49 13 73.5t48 43.5q-34 19 -47.5 45t-13.5 74v157q0 66 -16.5 83t-79.5 18v55q12 1 26 1q75 0 107.5 -34t32.5 -113v-164q0 -44 12.5 -65t44.5 -30v-55q-32 -8 -44.5 -28.5t-12.5 -65.5v-174q0 -73 -34 -105.5t-109 -32.5h-23v56q62 1 79 18t17 79z" />
    <glyph glyph-name="asciitilde" unicode="~" 
d="M458 698l38 -36q-36 -62 -67 -89t-68 -27q-19 0 -41 8t-119 50q-41 18 -64 18q-24 0 -45.5 -20t-50.5 -70l-37 37q37 62 67.5 88t66.5 26q22 0 47 -9t129 -54q31 -13 48 -13q45 0 96 91z" />
    <glyph glyph-name="uni00A0" unicode="&#xa0;" horiz-adv-x="240" 
 />
    <glyph glyph-name="exclamdown" unicode="&#xa1;" horiz-adv-x="197" 
d="M39 -194l8 518l70 -1l7 -516zM42 366v110h79v-109z" />
    <glyph glyph-name="cent" unicode="&#xa2;" horiz-adv-x="537" 
d="M300 667v-85q80 -4 132 -52t59 -125h-87q-17 88 -104 100v-355q94 12 110 116h87q-6 -83 -59.5 -136t-137.5 -57v-73h-62v75q-93 15 -145 82t-52 171t52 170.5t145 80.5v88h62zM238 155v345q-49 -15 -76.5 -61t-27.5 -111q0 -67 27 -112t77 -61z" />
    <glyph glyph-name="sterling" unicode="&#xa3;" horiz-adv-x="537" 
d="M58 -10l-59 35q44 74 68 96t67 26q27 33 27 74q0 31 -18 79h-128v67h99q-26 78 -26 122q0 87 60 144q55 52 162 52q120 0 177 -76q21 -29 31 -59.5t17 -86.5l-76 -16q-2 79 -40 120t-109 41q-64 0 -98 -33t-34 -94q0 -46 30 -114h153v-67h-131q15 -46 15 -71
q0 -39 -24 -90q32 -12 41 -17q4 -1 71 -35q42 -21 70 -21q53 0 81 82l67 -25q-32 -75 -66 -106.5t-82 -31.5q-52 0 -160 56q-52 29 -91 29q-51 0 -94 -80z" />
    <glyph glyph-name="currency" unicode="&#xa4;" horiz-adv-x="667" 
d="M50 125l95 95q-48 64 -48 141q0 75 49 141l-97 97l44 44l97 -97q69 50 143 50t142 -48l95 95l44 -45l-95 -94q52 -66 52 -144q0 -74 -49 -140l95 -95l-44 -45l-95 95q-67 -51 -145 -51q-73 0 -144 51l-95 -95zM338 525q-70 0 -119 -47.5t-49 -115.5q0 -70 48 -118.5
t117 -48.5q67 0 115 48.5t48 116.5q0 67 -47.5 116t-112.5 49z" />
    <glyph glyph-name="yen" unicode="&#xa5;" horiz-adv-x="537" 
d="M447 667l94 -1l-116 -190h57v-67h-98l-79 -127h177v-67h-178v-215h-85v215h-184v67h183l-75 127h-108v67h69l-112 191l91 -1l181 -306z" />
    <glyph glyph-name="brokenbar" unicode="&#xa6;" 
d="M280 320h-61v347h61v-347zM219 150h61v-321h-61v321z" />
    <glyph glyph-name="section" unicode="&#xa7;" horiz-adv-x="545" 
d="M530 535l-75 -62q-13 58 -41 87q-46 49 -133 49q-61 0 -99.5 -28.5t-38.5 -74.5q0 -27 15 -45q13 -15 50.5 -31t81.5 -25q166 -35 218 -105q35 -50 35 -89q0 -46 -36 -120q19 -59 19 -90q0 -75 -65 -135q-66 -61 -186 -61q-66 0 -123.5 22.5t-95.5 62.5q-25 28 -52 84
l80 70q2 -52 33 -92q54 -71 159 -71q74 0 119.5 35.5t45.5 94.5q0 48 -34 74q-37 28 -164 61q-108 28 -150 62q-53 43 -53 116q0 60 39 103q-23 57 -23 86q0 62 56 115q59 56 174 56q80 0 144 -36q38 -22 59.5 -46.5t40.5 -66.5zM137 368q-10 -28 -10 -45q0 -34 35 -57
t112 -40q110 -25 177 -67q6 22 6 35q0 44 -34 70q-37 29 -163 61q-75 19 -123 43z" />
    <glyph glyph-name="dieresis" unicode="&#xa8;" horiz-adv-x="295" 
d="M33 527v109h81v-109h-81zM179 527v109h83v-109h-83z" />
    <glyph glyph-name="copyright" unicode="&#xa9;" horiz-adv-x="779" 
d="M396 680q140 0 240.5 -102t100.5 -244q0 -144 -101.5 -245.5t-245.5 -101.5q-145 0 -246 101.5t-101 247.5q0 144 102.5 244t250.5 100zM394 634q-136 0 -226 -99q-77 -86 -77 -199q0 -126 87 -214.5t211 -88.5t211 88t87 213q0 122 -86.5 211t-206.5 89zM543 458
l-39 -40q-31 79 -110 79q-57 0 -91.5 -44.5t-34.5 -117.5t34 -116.5t92 -43.5q83 0 114 84l38 -45q-54 -88 -156 -88q-82 0 -130 57.5t-48 154.5q0 95 49.5 151t133.5 56q99 0 148 -87z" />
    <glyph glyph-name="ordfeminine" unicode="&#xaa;" horiz-adv-x="404" 
d="M356 319v-38h-294v38h294zM117 584l-50 27q28 92 130 92q56 0 88 -27t32 -74v-160q0 -18 7.5 -24.5t27.5 -6.5h3v-48h-31q-33 1 -44.5 9.5t-15.5 32.5q-41 -49 -100 -49q-43 0 -72.5 30.5t-29.5 74.5q0 40 22 65t71 38q63 18 81.5 28.5t18.5 27.5q0 15 -15.5 25t-39.5 10
q-32 0 -51.5 -16.5t-31.5 -54.5zM263 491v61q-26 -15 -39 -20t-58 -18q-45 -14 -45 -53q0 -26 17 -42t44 -16q35 0 58 25.5t23 62.5z" />
    <glyph glyph-name="guillemotleft" unicode="&#xab;" horiz-adv-x="392" 
d="M341 113l-135 112v100l135 112v-97l-86 -65l86 -65v-97zM175 113l-135 112v100l135 112v-97l-86 -65l86 -65v-97z" />
    <glyph glyph-name="logicalnot" unicode="&#xac;" 
d="M434 0v211h-424v57h481v-268h-57z" />
    <glyph glyph-name="uni00AD" unicode="&#xad;" horiz-adv-x="302" 
d="M32 231v63h234v-63h-234z" />
    <glyph glyph-name="registered" unicode="&#xae;" horiz-adv-x="779" 
d="M251 126v404h187q50 0 75 -15q46 -25 46 -88q0 -49 -31 -73q-20 -16 -68 -24l115 -204h-64l-109 200h-96v-200h-55zM306 380h143q55 0 55 47q0 52 -59 52h-139v-99zM396 680q140 0 240.5 -102t100.5 -244q0 -144 -101.5 -245.5t-245.5 -101.5q-145 0 -246 101.5
t-101 247.5q0 144 102.5 244t250.5 100zM394 634q-136 0 -226 -99q-77 -86 -77 -199q0 -126 87 -214.5t211 -88.5t211 88t87 213q0 122 -86.5 211t-206.5 89z" />
    <glyph glyph-name="macron" unicode="&#xaf;" 
d="M384 613v-63h-267v63h267z" />
    <glyph glyph-name="degree" unicode="&#xb0;" 
d="M248 681h2q62 0 105.5 -42.5t43.5 -102.5q0 -61 -43.5 -103.5t-105.5 -42.5t-105.5 42.5t-43.5 103.5q0 59 43.5 102t103.5 43zM250 633h-2q-39 0 -67.5 -28.5t-28.5 -68.5q0 -41 28.5 -70t69.5 -29q40 0 68.5 29t28.5 70q0 40 -28.5 68.5t-68.5 28.5z" />
    <glyph glyph-name="plusminus" unicode="&#xb1;" 
d="M10 413h209v196h63v-196h209v-63h-209v-182h-63v182h-209v63zM10 128h481v-63h-481v63z" />
    <glyph glyph-name="twosuperior" unicode="&#xb2;" horiz-adv-x="322" 
d="M278 340h-246q10 55 35.5 82.5t117.5 81.5q51 32 51 70q0 26 -20 41.5t-52 15.5t-54 -16t-22 -41q0 -14 13 -35l-47 -20q-13 29 -13 52q0 44 33 69.5t91 25.5q56 0 89 -26t33 -70q0 -32 -16.5 -54.5t-59.5 -47.5l-68 -40q-22 -15 -31 -24t-20 -27h186v-37z" />
    <glyph glyph-name="threesuperior" unicode="&#xb3;" horiz-adv-x="322" 
d="M46 467l48 -26q-8 -15 -8 -25q0 -21 19 -34t50 -13q34 0 55.5 19t21.5 48q0 30 -25 47.5t-67 17.5q-11 0 -25 -1v40q21 -2 41 -2q68 0 68 47q0 20 -19 33t-48 13q-28 0 -46 -11.5t-18 -29.5q0 -8 4 -20l-50 -16q0 5 -0.5 11.5t-1 10t-0.5 5.5q0 40 29 62t82 22
q55 0 85 -22t30 -62q0 -24 -11 -38.5t-40 -27.5q63 -21 63 -82q0 -46 -35.5 -73t-94.5 -27q-54 0 -87 24t-33 63q0 18 13 47z" />
    <glyph glyph-name="acute" unicode="&#xb4;" horiz-adv-x="198" 
d="M33 529l42 139h90l-80 -139h-52z" />
    <glyph glyph-name="mu" unicode="&#xb5;" 
d="M46 -168v651h75v-272q0 -63 18 -98q16 -29 45 -46.5t62 -17.5q58 0 94.5 47.5t36.5 122.5v264h75v-483h-75v82q-25 -51 -55.5 -73.5t-76.5 -22.5q-79 0 -124 75v-229h-75z" />
    <glyph glyph-name="paragraph" unicode="&#xb6;" horiz-adv-x="561" 
d="M240 -97v413h-13q-82 0 -133 48.5t-51 125.5q0 80 54 131q50 47 167 47h230v-40h-48v-725h-51v725h-103v-725h-52z" />
    <glyph glyph-name="periodcentered" unicode="&#xb7;" horiz-adv-x="93" 
d="M0 290v113h93v-113h-93z" />
    <glyph glyph-name="cedilla" unicode="&#xb8;" horiz-adv-x="153" 
d="M33 -116v85h87l-1 -49q-1 -39 -7.5 -59t-28.5 -50h-50l10 15q16 24 26 58h-36z" />
    <glyph glyph-name="onesuperior" unicode="&#xb9;" horiz-adv-x="322" 
d="M64 559v37q26 7 49 27t31 43h49v-326h-49v266q-36 -41 -80 -47z" />
    <glyph glyph-name="ordmasculine" unicode="&#xba;" horiz-adv-x="415" 
d="M358 319v-38h-294v38h294zM225 702q66 0 104 -46.5t38 -126.5q0 -77 -38.5 -122t-104.5 -45q-65 0 -103.5 47t-38.5 127q0 76 39 121t104 45zM226 659q-39 0 -63 -35t-24 -92q0 -59 24 -93t66 -34q37 0 59.5 34t22.5 89q0 61 -23 96t-62 35z" />
    <glyph glyph-name="guillemotright" unicode="&#xbb;" horiz-adv-x="392" 
d="M51 437l135 -112v-100l-135 -112v97l86 65l-86 65v97zM217 437l135 -112v-100l-135 -112v97l86 65l-86 65v97z" />
    <glyph glyph-name="onequarter" unicode="&#xbc;" horiz-adv-x="673" 
d="M63 559v37q26 7 49.5 27t31.5 43h49v-326h-49v266q-36 -41 -81 -47zM504 658l-393 -658h-52l394 658h51zM310 76v29l174 220h38v-213h61v-36h-61v-76h-49v76h-163zM367 112h106v141l-9 -15z" />
    <glyph glyph-name="onehalf" unicode="&#xbd;" horiz-adv-x="673" 
d="M63 559v37q26 7 49.5 27t31.5 43h49v-326h-49v266q-36 -41 -81 -47zM504 658l-393 -658h-52l394 658h51zM629 0h-246q10 55 35.5 82.5t117.5 81.5q51 31 51 70q0 26 -20 41.5t-52 15.5t-54 -16t-22 -41q0 -14 13 -35l-46 -20q-14 27 -14 52q0 44 33 69.5t91 25.5
q56 0 89 -26t33 -70q0 -32 -16.5 -54.5t-59.5 -47.5q-1 -1 -68 -40q-22 -15 -31 -24t-20 -27h186v-37z" />
    <glyph glyph-name="threequarters" unicode="&#xbe;" horiz-adv-x="753" 
d="M584 658l-394 -658h-51l394 658h51zM390 76v29l173 220h38v-213h61v-36h-61v-76h-49v76h-162zM447 112h105v141l-9 -15zM46 467l48 -26q-8 -15 -8 -25q0 -21 19 -34t50 -13q34 0 55.5 19t21.5 48q0 30 -25 47.5t-67 17.5q-11 0 -25 -1v40q21 -2 41 -2q68 0 68 47
q0 20 -19 33t-48 13q-28 0 -46 -11.5t-18 -29.5q0 -8 4 -20l-50 -16q0 5 -0.5 11.5t-1 10t-0.5 5.5q0 40 29 62t82 22q55 0 85 -22t30 -62q0 -24 -11 -38.5t-40 -27.5q63 -21 63 -82q0 -46 -35.5 -73t-94.5 -27q-54 0 -87 24t-33 63q0 18 13 47z" />
    <glyph glyph-name="questiondown" unicode="&#xbf;" horiz-adv-x="433" 
d="M198 320h80v-64q0 -59 -21 -84q-16 -19 -82 -84q-46 -46 -60.5 -70.5t-14.5 -56.5q0 -43 29.5 -72.5t73.5 -29.5q46 0 76.5 31t30.5 78q0 21 -7 54l83 -36q-5 -88 -34 -130q-21 -32 -60 -50t-86 -18q-82 0 -132.5 48t-50.5 126q0 66 49 126q14 17 90 94q23 23 29.5 39.5
t6.5 51.5v47zM197 358v113h83v-113h-83z" />
    <glyph glyph-name="Agrave" unicode="&#xc0;" horiz-adv-x="614" 
d="M1 0l266 667h81l265 -667h-88l-72 183l-291 1l-74 -184h-87zM193 261h228l-96 249l-18 51l-16 -46zM243 874h88l40 -140h-48z" />
    <glyph glyph-name="Aacute" unicode="&#xc1;" horiz-adv-x="614" 
d="M1 0l266 667h81l265 -667h-88l-72 183l-291 1l-74 -184h-87zM193 261h228l-96 249l-18 51l-16 -46zM241 733l43 140h89l-80 -140h-52z" />
    <glyph glyph-name="Acircumflex" unicode="&#xc2;" horiz-adv-x="614" 
d="M1 0l266 667h81l265 -667h-88l-72 183l-291 1l-74 -184h-87zM193 261h228l-96 249l-18 51l-16 -46zM177 733l85 142h89l87 -142h-73l-57 93l-57 -93h-74z" />
    <glyph glyph-name="Atilde" unicode="&#xc3;" horiz-adv-x="614" 
d="M1 0l266 667h81l265 -667h-88l-72 183l-291 1l-74 -184h-87zM193 261h228l-96 249l-18 51l-16 -46zM211 739h-48q2 39 28 67.5t58 28.5t85 -24q22 -10 35 -10q19 0 34 28h48q-8 -45 -30 -70.5t-53 -25.5q-28 0 -69 19q-35 15 -56 15q-20 0 -32 -28z" />
    <glyph glyph-name="Adieresis" unicode="&#xc4;" horiz-adv-x="614" 
d="M1 0l266 667h81l265 -667h-88l-72 183l-291 1l-74 -184h-87zM193 261h228l-96 249l-18 51l-16 -46zM193 733v109h81v-109h-81zM338 733v109h83v-109h-83z" />
    <glyph glyph-name="Aring" unicode="&#xc5;" horiz-adv-x="614" 
d="M1 0l266 667h81l265 -667h-88l-72 183l-291 1l-74 -184h-87zM193 261h228l-96 249l-18 51l-16 -46zM308 910q37 0 62 -26t25 -64q0 -36 -26 -61.5t-62 -25.5q-37 0 -62.5 26t-25.5 63t26 62.5t63 25.5zM354 822q0 20 -14 33.5t-33 13.5t-33 -13.5t-14 -33.5t13.5 -34
t33.5 -14t33.5 14t13.5 34z" />
    <glyph glyph-name="AE" unicode="&#xc6;" horiz-adv-x="859" 
d="M828 667v-80h-313v-158h283v-81h-283v-267h313v-81h-399v184h-227l-113 -184h-87l407 667h419zM429 563l-180 -302h180v302z" />
    <glyph glyph-name="Ccedilla" unicode="&#xc7;" horiz-adv-x="617" 
d="M375 -13v-44q-1 -39 -7.5 -59t-28.5 -50h-51q20 31 26 42.5t10 30.5h-36l1 81q-119 19 -184 110.5t-65 238.5q0 158 83 251.5t223 93.5q74 0 131 -30q40 -20 65 -45t50 -70l-66 -66q-23 58 -55 86q-54 46 -127 46q-89 0 -147 -64q-29 -32 -46.5 -87.5t-17.5 -117.5
q0 -124 56.5 -196.5t152.5 -72.5q78 0 135 51q19 17 30.5 35.5t25.5 53.5l64 -74q-70 -124 -222 -144z" />
    <glyph glyph-name="Egrave" unicode="&#xc8;" horiz-adv-x="499" 
d="M69 0v667h400v-80h-314v-158h283v-81h-283v-267h314v-81h-400zM205 874h88l40 -140h-48z" />
    <glyph glyph-name="Eacute" unicode="&#xc9;" horiz-adv-x="499" 
d="M69 0v667h400v-80h-314v-158h283v-81h-283v-267h314v-81h-400zM203 733l43 140h89l-80 -140h-52z" />
    <glyph glyph-name="Ecircumflex" unicode="&#xca;" horiz-adv-x="499" 
d="M69 0v667h400v-80h-314v-158h283v-81h-283v-267h314v-81h-400zM139 733l85 142h89l87 -142h-73l-57 93l-57 -93h-74z" />
    <glyph glyph-name="Edieresis" unicode="&#xcb;" horiz-adv-x="499" 
d="M69 0v667h400v-80h-314v-158h283v-81h-283v-267h314v-81h-400zM155 733v109h81v-109h-81zM300 733v109h83v-109h-83z" />
    <glyph glyph-name="Igrave" unicode="&#xcc;" horiz-adv-x="222" 
d="M68 0v667h86v-667h-86zM46 874h88l41 -140h-49z" />
    <glyph glyph-name="Iacute" unicode="&#xcd;" horiz-adv-x="222" 
d="M68 0v667h86v-667h-86zM45 733l42 140h90l-80 -140h-52z" />
    <glyph glyph-name="Icircumflex" unicode="&#xce;" horiz-adv-x="222" 
d="M68 0v667h86v-667h-86zM-20 733l86 142h88l87 -142h-72l-58 93l-57 -93h-74z" />
    <glyph glyph-name="Idieresis" unicode="&#xcf;" horiz-adv-x="222" 
d="M67 0v667h86v-667h-86zM-4 733v109h81v-109h-81zM142 733v109h83v-109h-83z" />
    <glyph glyph-name="Eth" unicode="&#xd0;" horiz-adv-x="661" 
d="M69 357h-53v83h53v227h247q102 0 153 -29q67 -39 105.5 -120t38.5 -184q0 -198 -116 -285q-36 -27 -79 -38t-113 -11h-236v357zM156 357v-274l144 -1q68 0 102 11t60 42q57 68 57 202q0 95 -35 159q-50 88 -175 88h-153v-144h111v-83h-111z" />
    <glyph glyph-name="Ntilde" unicode="&#xd1;" horiz-adv-x="670" 
d="M68 0v667h122l294 -490l36 -70v560h85v-667h-109l-303 505l-40 72v-577h-85zM240 739h-48q3 39 28.5 67.5t57.5 28.5t85 -24q22 -10 36 -10q18 0 33 28h49q-9 -45 -31 -70.5t-52 -25.5q-29 0 -70 19q-35 15 -56 15q-19 0 -32 -28z" />
    <glyph glyph-name="Ograve" unicode="&#xd2;" horiz-adv-x="700" 
d="M344 683q143 0 228 -96.5t85 -258.5q0 -158 -83.5 -251.5t-225.5 -93.5q-138 0 -221 93.5t-83 249.5q0 164 81 260.5t219 96.5zM344 603q-98 0 -151.5 -73.5t-53.5 -206.5q0 -124 55 -192.5t155 -68.5q96 0 152 64q28 31 44.5 86.5t16.5 120.5q0 125 -58.5 197.5
t-159.5 72.5zM286 889h88l41 -140h-49z" />
    <glyph glyph-name="Oacute" unicode="&#xd3;" horiz-adv-x="700" 
d="M344 683q143 0 228 -96.5t85 -258.5q0 -158 -83.5 -251.5t-225.5 -93.5q-138 0 -221 93.5t-83 249.5q0 164 81 260.5t219 96.5zM344 603q-98 0 -151.5 -73.5t-53.5 -206.5q0 -124 55 -192.5t155 -68.5q96 0 152 64q28 31 44.5 86.5t16.5 120.5q0 125 -58.5 197.5
t-159.5 72.5zM285 749l42 139h89l-80 -139h-51z" />
    <glyph glyph-name="Ocircumflex" unicode="&#xd4;" horiz-adv-x="700" 
d="M344 683q143 0 228 -96.5t85 -258.5q0 -158 -83.5 -251.5t-225.5 -93.5q-138 0 -221 93.5t-83 249.5q0 164 81 260.5t219 96.5zM344 603q-98 0 -151.5 -73.5t-53.5 -206.5q0 -124 55 -192.5t155 -68.5q96 0 152 64q28 31 44.5 86.5t16.5 120.5q0 125 -58.5 197.5
t-159.5 72.5zM220 749l86 142h88l87 -142h-72l-58 93l-57 -93h-74z" />
    <glyph glyph-name="Otilde" unicode="&#xd5;" horiz-adv-x="700" 
d="M344 683q143 0 228 -96.5t85 -258.5q0 -158 -83.5 -251.5t-225.5 -93.5q-138 0 -221 93.5t-83 249.5q0 164 81 260.5t219 96.5zM344 603q-98 0 -151.5 -73.5t-53.5 -206.5q0 -124 55 -192.5t155 -68.5q96 0 152 64q28 31 44.5 86.5t16.5 120.5q0 125 -58.5 197.5
t-159.5 72.5zM254 754h-48q3 39 29 68t58 29t84 -25q22 -10 36 -10q17 0 34 29h48q-9 -46 -31 -71.5t-52 -25.5q-27 0 -70 19q-35 15 -56 15q-19 0 -32 -28z" />
    <glyph glyph-name="Odieresis" unicode="&#xd6;" horiz-adv-x="700" 
d="M344 683q143 0 228 -96.5t85 -258.5q0 -158 -83.5 -251.5t-225.5 -93.5q-138 0 -221 93.5t-83 249.5q0 164 81 260.5t219 96.5zM344 603q-98 0 -151.5 -73.5t-53.5 -206.5q0 -124 55 -192.5t155 -68.5q96 0 152 64q28 31 44.5 86.5t16.5 120.5q0 125 -58.5 197.5
t-159.5 72.5zM236 749v109h81v-109h-81zM382 749v109h83v-109h-83z" />
    <glyph glyph-name="Oslash" unicode="&#xd8;" horiz-adv-x="701" 
d="M507 640l42 73l33 -19l-44 -76q119 -96 119 -288q0 -159 -83 -253t-225 -94q-87 0 -155 38l-45 -78l-33 20l46 80q-118 96 -118 285q0 87 28.5 163.5t76.5 120.5q76 70 200 70q92 0 158 -42zM205 118l260 450q-49 34 -118 34q-114 0 -165 -91q-43 -77 -43 -186
q0 -143 66 -207zM494 542l-258 -448q52 -32 113 -32q96 0 152 64q28 31 44.5 87t16.5 121q0 133 -68 208z" />
    <glyph glyph-name="Ugrave" unicode="&#xd9;" horiz-adv-x="630" 
d="M69 667h86v-435q0 -80 43 -125t119 -45q74 0 119.5 44t45.5 115v446h85v-446q0 -118 -68 -178q-69 -59 -179 -59q-74 0 -133 28.5t-87 78.5q-31 53 -31 141v435zM253 874h88l41 -140h-48z" />
    <glyph glyph-name="Uacute" unicode="&#xda;" horiz-adv-x="630" 
d="M69 667h86v-435q0 -80 43 -125t119 -45q74 0 119.5 44t45.5 115v446h85v-446q0 -118 -68 -178q-69 -59 -179 -59q-74 0 -133 28.5t-87 78.5q-31 53 -31 141v435zM252 733l42 140h90l-80 -140h-52z" />
    <glyph glyph-name="Ucircumflex" unicode="&#xdb;" horiz-adv-x="630" 
d="M69 667h86v-435q0 -80 43 -125t119 -45q74 0 119.5 44t45.5 115v446h85v-446q0 -118 -68 -178q-69 -59 -179 -59q-74 0 -133 28.5t-87 78.5q-31 53 -31 141v435zM187 733l86 142h88l87 -142h-72l-57 93l-58 -93h-74z" />
    <glyph glyph-name="Udieresis" unicode="&#xdc;" horiz-adv-x="630" 
d="M69 667h86v-435q0 -80 43 -125t119 -45q74 0 119.5 44t45.5 115v446h85v-446q0 -118 -68 -178q-69 -59 -179 -59q-74 0 -133 28.5t-87 78.5q-31 53 -31 141v435zM204 733v109h81v-109h-81zM349 733v109h83v-109h-83z" />
    <glyph glyph-name="Yacute" unicode="&#xdd;" horiz-adv-x="558" 
d="M231 280l-227 387l91 -1l181 -306l183 307l94 -1l-237 -386v-280h-85v280zM213 733l42 140h90l-81 -140h-51z" />
    <glyph glyph-name="Thorn" unicode="&#xde;" horiz-adv-x="550" 
d="M154 209v-209h-86v667h86v-87h163q100 0 151 -29q80 -44 80 -158q0 -104 -71 -152q-47 -32 -121 -32h-202zM154 289h189q120 0 120 105t-128 105h-180l-1 1v-211z" />
    <glyph glyph-name="germandbls" unicode="&#xdf;" horiz-adv-x="499" 
d="M241 -10v61q18 -3 27 -3q51 0 97 44q32 30 32 107q0 76 -36 114q-30 31 -120 31v66q37 0 63 11q33 14 47 37.5t14 63.5q0 52 -27.5 82t-75.5 30q-67 0 -93 -47q-12 -21 -16 -45.5t-4 -80.5v-461h-79v447q0 111 15 148q40 96 176 96q87 0 136 -43t49 -119q0 -59 -39 -107
q-22 -26 -60 -40q51 -14 75 -36q56 -48 56 -140q0 -94 -57 -156t-144 -62q-8 0 -36 2z" />
    <glyph glyph-name="agrave" unicode="&#xe0;" horiz-adv-x="433" 
d="M96 305l-69 37q15 51 49 81q54 47 131 47q89 0 135 -49q32 -34 32 -92v-221q0 -47 47 -44h5v-67l-43 1q-45 1 -61.5 13t-21.5 45q-57 -68 -138 -68q-60 0 -101 42t-41 104q0 51 29 89q27 33 99 54q67 19 86 26t36 20q17 14 17 31q0 21 -21.5 35t-53.5 14q-47 0 -78 -29
q-22 -19 -38 -69zM299 176v84q-35 -19 -53 -26t-82 -27q-63 -19 -63 -73q0 -36 23.5 -58.5t61.5 -22.5q48 0 80.5 35.5t32.5 87.5zM159 676h88l40 -140l-48 1z" />
    <glyph glyph-name="aacute" unicode="&#xe1;" horiz-adv-x="433" 
d="M96 305l-69 37q15 51 49 81q54 47 131 47q89 0 135 -49q32 -34 32 -92v-221q0 -47 47 -44h5v-67l-43 1q-45 1 -61.5 13t-21.5 45q-57 -68 -138 -68q-60 0 -101 42t-41 104q0 51 29 89q27 33 99 54q67 19 86 26t36 20q17 14 17 31q0 21 -21.5 35t-53.5 14q-47 0 -78 -29
q-22 -19 -38 -69zM299 176v84q-35 -19 -53 -26t-82 -27q-63 -19 -63 -73q0 -36 23.5 -58.5t61.5 -22.5q48 0 80.5 35.5t32.5 87.5zM157 536l43 139h89l-80 -139h-52z" />
    <glyph glyph-name="acircumflex" unicode="&#xe2;" horiz-adv-x="433" 
d="M96 305l-69 37q15 51 49 81q54 47 131 47q89 0 135 -49q32 -34 32 -92v-221q0 -47 47 -44h5v-67l-43 1q-45 1 -61.5 13t-21.5 45q-57 -68 -138 -68q-60 0 -101 42t-41 104q0 51 29 89q27 33 99 54q67 19 86 26t36 20q17 14 17 31q0 21 -21.5 35t-53.5 14q-47 0 -78 -29
q-22 -19 -38 -69zM299 176v84q-35 -19 -53 -26t-82 -27q-63 -19 -63 -73q0 -36 23.5 -58.5t61.5 -22.5q48 0 80.5 35.5t32.5 87.5zM93 536l85 142h89l87 -142h-73l-57 93l-57 -93h-74z" />
    <glyph glyph-name="atilde" unicode="&#xe3;" horiz-adv-x="433" 
d="M96 305l-69 37q15 51 49 81q54 47 131 47q89 0 135 -49q32 -34 32 -92v-221q0 -47 47 -44h5v-67l-43 1q-45 1 -61.5 13t-21.5 45q-57 -68 -138 -68q-60 0 -101 42t-41 104q0 51 29 89q27 33 99 54q67 19 86 26t36 20q17 14 17 31q0 21 -21.5 35t-53.5 14q-47 0 -78 -29
q-22 -19 -38 -69zM299 176v84q-35 -19 -53 -26t-82 -27q-63 -19 -63 -73q0 -36 23.5 -58.5t61.5 -22.5q48 0 80.5 35.5t32.5 87.5zM127 541h-48q2 39 28 68t58 29q33 0 85 -25q22 -10 35 -10q19 0 34 29h48q-8 -46 -30 -71.5t-53 -25.5q-28 0 -69 19q-35 15 -56 15
q-20 0 -32 -28z" />
    <glyph glyph-name="adieresis" unicode="&#xe4;" horiz-adv-x="433" 
d="M96 305l-69 37q15 51 49 81q54 47 131 47q89 0 135 -49q32 -34 32 -92v-221q0 -47 47 -44h5v-67l-43 1q-45 1 -61.5 13t-21.5 45q-57 -68 -138 -68q-60 0 -101 42t-41 104q0 51 29 89q27 33 99 54q67 19 86 26t36 20q17 14 17 31q0 21 -21.5 35t-53.5 14q-47 0 -78 -29
q-22 -19 -38 -69zM299 176v84q-35 -19 -53 -26t-82 -27q-63 -19 -63 -73q0 -36 23.5 -58.5t61.5 -22.5q48 0 80.5 35.5t32.5 87.5zM109 536v109h81v-109h-81zM254 536v109h83v-109h-83z" />
    <glyph glyph-name="aring" unicode="&#xe5;" horiz-adv-x="433" 
d="M96 305l-69 37q15 51 49 81q54 47 131 47q89 0 135 -49q32 -34 32 -92v-221q0 -47 47 -44h5v-67l-43 1q-45 1 -61.5 13t-21.5 45q-57 -68 -138 -68q-60 0 -101 42t-41 104q0 51 29 89q27 33 99 54q67 19 86 26t36 20q17 14 17 31q0 21 -21.5 35t-53.5 14q-47 0 -78 -29
q-22 -19 -38 -69zM299 176v84q-35 -19 -53 -26t-82 -27q-63 -19 -63 -73q0 -36 23.5 -58.5t61.5 -22.5q48 0 80.5 35.5t32.5 87.5zM224 713q37 0 62 -26t25 -64q0 -36 -26 -61.5t-62 -25.5q-37 0 -62.5 26t-25.5 63t26 62.5t63 25.5zM270 625q0 19 -14 33t-33 14t-33 -14
t-14 -33q0 -20 13.5 -34t33.5 -14t33.5 14t13.5 34z" />
    <glyph glyph-name="ae" unicode="&#xe6;" horiz-adv-x="712" 
d="M96 305l-69 37q14 49 49 80q54 47 129 47q47 0 78.5 -12t63.5 -42q39 33 66.5 45t67.5 12q93 0 145 -63t52 -176v-29l-307 1q4 -67 30 -106q32 -47 91 -47q53 0 82 32q19 22 36 73l68 -48q-38 -64 -81 -92.5t-104 -28.5q-101 0 -168 85q-78 -85 -160 -85q-62 0 -103.5 42
t-41.5 104q0 49 29 89q27 33 99 54q70 20 88.5 26.5t33.5 18.5q17 15 17 32q0 21 -21.5 35t-53.5 14q-47 0 -79 -29q-22 -20 -37 -69zM299 176v84q-35 -19 -53 -26t-82 -27q-63 -19 -63 -73q0 -36 23.5 -58.5t61.5 -22.5q48 0 80.5 35.5t32.5 87.5zM372 266l222 1
q-1 56 -22 88q-33 51 -91 51q-93 0 -109 -140z" />
    <glyph glyph-name="ccedilla" unicode="&#xe7;" horiz-adv-x="423" 
d="M280 -9v-43q-1 -39 -7.5 -59t-28.5 -50h-51q8 12 10 16q18 27 26 57h-36l1 81q-33 8 -54 21q-49 28 -76 85t-27 134q0 113 53 177t147 64q85 0 136 -54q30 -31 48 -91l-76 -29q-3 46 -22 70q-30 42 -82 42q-57 0 -91 -49t-34 -132q0 -84 35 -132.5t96 -48.5q94 0 111 116
l68 -41q-31 -113 -146 -134z" />
    <glyph glyph-name="egrave" unicode="&#xe8;" horiz-adv-x="460" 
d="M424 204l-306 1q4 -68 30 -106q32 -47 91 -47q53 0 82 32q18 20 36 73l67 -48q-37 -64 -80.5 -92.5t-104.5 -28.5q-88 0 -147 62q-55 58 -55 178q0 114 51.5 179t141.5 65q92 0 143.5 -64t51.5 -177q0 -15 -1 -27zM119 266l221 1q0 55 -21 88q-33 51 -91 51
q-93 0 -109 -140zM166 679h88l41 -140h-49z" />
    <glyph glyph-name="eacute" unicode="&#xe9;" horiz-adv-x="460" 
d="M424 204l-306 1q4 -68 30 -106q32 -47 91 -47q53 0 82 32q18 20 36 73l67 -48q-37 -64 -80.5 -92.5t-104.5 -28.5q-88 0 -147 62q-55 58 -55 178q0 114 51.5 179t141.5 65q92 0 143.5 -64t51.5 -177q0 -15 -1 -27zM119 266l221 1q0 55 -21 88q-33 51 -91 51
q-93 0 -109 -140zM165 539l42 139h90l-80 -139h-52z" />
    <glyph glyph-name="ecircumflex" unicode="&#xea;" horiz-adv-x="460" 
d="M424 204l-306 1q4 -68 30 -106q32 -47 91 -47q53 0 82 32q18 20 36 73l67 -48q-37 -64 -80.5 -92.5t-104.5 -28.5q-88 0 -147 62q-55 58 -55 178q0 114 51.5 179t141.5 65q92 0 143.5 -64t51.5 -177q0 -15 -1 -27zM119 266l221 1q0 55 -21 88q-33 51 -91 51
q-93 0 -109 -140zM100 539l86 142h88l87 -142h-72l-57 93l-58 -93h-74z" />
    <glyph glyph-name="edieresis" unicode="&#xeb;" horiz-adv-x="460" 
d="M424 204l-306 1q4 -68 30 -106q32 -47 91 -47q53 0 82 32q18 20 36 73l67 -48q-37 -64 -80.5 -92.5t-104.5 -28.5q-88 0 -147 62q-55 58 -55 178q0 114 51.5 179t141.5 65q92 0 143.5 -64t51.5 -177q0 -15 -1 -27zM119 266l221 1q0 55 -21 88q-33 51 -91 51
q-93 0 -109 -140zM116 538v109h81v-109h-81zM262 538v109h83v-109h-83z" />
    <glyph glyph-name="igrave" unicode="&#xec;" horiz-adv-x="196" 
d="M64 0v461h73v-461h-73zM36 668h88l41 -140h-49z" />
    <glyph glyph-name="iacute" unicode="&#xed;" horiz-adv-x="196" 
d="M63 0v461h73v-461h-73zM34 527l42 140h90l-80 -140h-52z" />
    <glyph glyph-name="icircumflex" unicode="&#xee;" horiz-adv-x="196" 
d="M64 0v461h73v-461h-73zM-30 527l86 142h88l87 -142h-72l-58 94l-57 -94h-74z" />
    <glyph glyph-name="idieresis" unicode="&#xef;" horiz-adv-x="196" 
d="M64 0v461h73v-461h-73zM-14 527v109h81v-109h-81zM132 527v109h83v-109h-83z" />
    <glyph glyph-name="eth" unicode="&#xf0;" horiz-adv-x="472" 
d="M449 619l-73 -42q37 -67 52.5 -133t15.5 -152q0 -197 -74 -259q-58 -49 -134 -49q-93 0 -148 67t-55 180q0 109 55 174t148 65q61 0 114 -34q-16 59 -40 103l-85 -49l-33 58l78 45q-8 9 -28 29v109q63 -52 97 -98l77 44zM238 408q-56 0 -89.5 -50t-33.5 -133t34 -131
t93 -48q53 0 84 48.5t31 131.5q0 84 -32 133t-87 49z" />
    <glyph glyph-name="ntilde" unicode="&#xf1;" horiz-adv-x="472" 
d="M62 0v461h74v-66q27 41 57.5 59t74.5 18q85 0 124 -66q19 -34 19 -100v-306h-74v272q0 62 -16 91q-22 40 -71 40q-44 0 -78.5 -37t-34.5 -86v-280h-75zM140 544h-48q3 39 29 67.5t58 28.5q31 0 84 -24q23 -10 36 -10q17 0 34 28h48q-9 -45 -31 -70.5t-52 -25.5
q-27 0 -70 19q-35 15 -56 15q-19 0 -32 -28z" />
    <glyph glyph-name="ograve" unicode="&#xf2;" horiz-adv-x="472" 
d="M236 470q94 0 148.5 -66t54.5 -181q0 -130 -69 -190q-57 -49 -134 -49q-93 0 -148 67t-55 180q0 109 55 174t148 65zM238 408q-55 0 -89 -50t-34 -132q0 -85 34 -132.5t94 -47.5q51 0 83 48.5t32 125.5q0 87 -32 137.5t-88 50.5zM172 677h87l41 -140h-48z" />
    <glyph glyph-name="oacute" unicode="&#xf3;" horiz-adv-x="472" 
d="M236 470q94 0 148.5 -66t54.5 -181q0 -130 -69 -190q-57 -49 -134 -49q-93 0 -148 67t-55 180q0 109 55 174t148 65zM238 408q-55 0 -89 -50t-34 -132q0 -85 34 -132.5t94 -47.5q51 0 83 48.5t32 125.5q0 87 -32 137.5t-88 50.5zM170 537l43 139h89l-80 -139h-52z" />
    <glyph glyph-name="ocircumflex" unicode="&#xf4;" horiz-adv-x="472" 
d="M236 470q94 0 148.5 -66t54.5 -181q0 -130 -69 -190q-57 -49 -134 -49q-93 0 -148 67t-55 180q0 109 55 174t148 65zM238 408q-55 0 -89 -50t-34 -132q0 -85 34 -132.5t94 -47.5q51 0 83 48.5t32 125.5q0 87 -32 137.5t-88 50.5zM105 537l86 142h88l88 -142h-73l-57 93
l-57 -93h-75z" />
    <glyph glyph-name="otilde" unicode="&#xf5;" horiz-adv-x="472" 
d="M236 470q94 0 148.5 -66t54.5 -181q0 -130 -69 -190q-57 -49 -134 -49q-93 0 -148 67t-55 180q0 109 55 174t148 65zM238 408q-55 0 -89 -50t-34 -132q0 -85 34 -132.5t94 -47.5q51 0 83 48.5t32 125.5q0 87 -32 137.5t-88 50.5zM140 542h-48q2 39 28 67.5t58 28.5
t85 -24q22 -10 35 -10q19 0 34 28h48q-8 -45 -30 -70.5t-53 -25.5q-28 0 -69 19q-35 15 -57 15q-19 0 -31 -28z" />
    <glyph glyph-name="odieresis" unicode="&#xf6;" horiz-adv-x="472" 
d="M236 470q94 0 148.5 -66t54.5 -181q0 -130 -69 -190q-57 -49 -134 -49q-93 0 -148 67t-55 180q0 109 55 174t148 65zM238 408q-55 0 -89 -50t-34 -132q0 -85 34 -132.5t94 -47.5q51 0 83 48.5t32 125.5q0 87 -32 137.5t-88 50.5zM122 536v109h81v-109h-81zM267 536v109
h83v-109h-83z" />
    <glyph glyph-name="divide" unicode="&#xf7;" 
d="M251 582q21 0 36 -15t15 -37t-15 -37t-37 -15t-37 15t-15 37t15.5 37t37.5 15zM251 205q21 0 36 -15t15 -37t-15 -37t-37 -15t-37 15t-15 37t15.5 37t37.5 15zM10 373h481v-63h-481v63z" />
    <glyph glyph-name="oslash" unicode="&#xf8;" horiz-adv-x="472" 
d="M339 444l40 69l33 -17l-43 -75q70 -67 70 -188q0 -97 -34 -157q-23 -42 -69 -67t-100 -25q-58 0 -102 27l-44 -76l-33 19l46 80q-33 30 -51.5 82.5t-18.5 114.5q0 110 55 174.5t149 64.5q58 0 102 -26zM330 353l-161 -281q30 -27 70 -27q55 0 87.5 48.5t32.5 129.5
q0 75 -29 130zM143 103l162 281q-31 25 -67 25q-55 0 -89 -50t-34 -130q0 -82 28 -126z" />
    <glyph glyph-name="ugrave" unicode="&#xf9;" horiz-adv-x="471" 
d="M59 461h74v-317q0 -41 23 -65t62 -24q50 0 84 40t34 98v268h73v-461h-73v59q-57 -71 -136 -71q-38 0 -70 17t-48 46q-23 39 -23 119v291zM170 668h87l41 -140h-48z" />
    <glyph glyph-name="uacute" unicode="&#xfa;" horiz-adv-x="471" 
d="M59 461h74v-317q0 -41 23 -65t62 -24q50 0 84 40t34 98v268h73v-461h-73v59q-57 -71 -136 -71q-38 0 -70 17t-48 46q-23 39 -23 119v291zM168 527l43 140h89l-80 -140h-52z" />
    <glyph glyph-name="ucircumflex" unicode="&#xfb;" horiz-adv-x="471" 
d="M59 461h74v-317q0 -41 23 -65t62 -24q50 0 84 40t34 98v268h73v-461h-73v59q-57 -71 -136 -71q-38 0 -70 17t-48 46q-23 39 -23 119v291zM103 527l86 142h88l88 -142h-73l-57 94l-57 -94h-75z" />
    <glyph glyph-name="udieresis" unicode="&#xfc;" horiz-adv-x="471" 
d="M59 461h74v-317q0 -41 23 -65t62 -24q50 0 84 40t34 98v268h73v-461h-73v59q-57 -71 -136 -71q-38 0 -70 17t-48 46q-23 39 -23 119v291zM120 527v109h81v-109h-81zM265 527v109h83v-109h-83z" />
    <glyph glyph-name="yacute" unicode="&#xfd;" horiz-adv-x="474" 
d="M80 -20l66 -40q-8 -25 -8 -38q0 -26 25.5 -43t65.5 -17q57 0 87 30q21 20 21 68v129q-34 -42 -66 -60t-73 -18q-78 0 -113 62q-20 36 -20 105v303h74v-303q0 -55 23 -75q22 -21 57 -21q50 0 85 40.5t35 99.5v259h74v-538q0 -66 -38 -98q-49 -41 -143 -41q-81 0 -124.5 32
t-43.5 91q0 26 16 73zM173 527l42 140h89l-80 -140h-51z" />
    <glyph glyph-name="thorn" unicode="&#xfe;" 
d="M142 667v-268q55 73 134 73q96 0 151 -95q33 -60 33 -147q0 -88 -34 -147q-25 -43 -66 -68.5t-88 -25.5q-79 0 -130 72v-266h-74v872h74zM261 396q-54 0 -87 -42.5t-33 -112.5q0 -80 26 -127q13 -23 39.5 -38.5t54.5 -15.5q54 0 87 47t33 123q0 103 -55 143
q-31 23 -65 23z" />
    <glyph glyph-name="ydieresis" unicode="&#xff;" horiz-adv-x="474" 
d="M80 -20l66 -40q-8 -25 -8 -38q0 -26 25.5 -43t65.5 -17q57 0 87 30q21 20 21 68v129q-34 -42 -66 -60t-73 -18q-78 0 -113 62q-20 36 -20 105v303h74v-303q0 -55 23 -75q22 -21 57 -21q50 0 85 40.5t35 99.5v259h74v-538q0 -66 -38 -98q-49 -41 -143 -41q-81 0 -124.5 32
t-43.5 91q0 26 16 73zM124 527v109h81v-109h-81zM270 527v109h83v-109h-83z" />
    <glyph glyph-name="Amacron" unicode="&#x100;" horiz-adv-x="614" 
d="M1 0l266 667h81l265 -667h-88l-72 183l-291 1l-74 -184h-87zM193 261h228l-96 249l-18 51l-16 -46zM441 822v-63h-267v63h267z" />
    <glyph glyph-name="amacron" unicode="&#x101;" horiz-adv-x="433" 
d="M96 305l-69 37q15 51 49 81q54 47 131 47q89 0 135 -49q32 -34 32 -92v-221q0 -47 47 -44h5v-67l-43 1q-45 1 -61.5 13t-21.5 45q-57 -68 -138 -68q-60 0 -101 42t-41 104q0 51 29 89q27 33 99 54q67 19 86 26t36 20q17 14 17 31q0 21 -21.5 35t-53.5 14q-47 0 -78 -29
q-22 -19 -38 -69zM299 176v84q-35 -19 -53 -26t-82 -27q-63 -19 -63 -73q0 -36 23.5 -58.5t61.5 -22.5q48 0 80.5 35.5t32.5 87.5zM351 613v-63h-267v63h267z" />
    <glyph glyph-name="Abreve" unicode="&#x102;" horiz-adv-x="614" 
d="M1 0l266 667h81l265 -667h-88l-72 183l-291 1l-74 -184h-87zM193 261h228l-96 249l-18 51l-16 -46zM393 852h64q-14 -58 -53.5 -90.5t-96.5 -32.5t-96.5 32.5t-53.5 90.5h65q27 -60 85 -60q59 0 86 60z" />
    <glyph glyph-name="abreve" unicode="&#x103;" horiz-adv-x="433" 
d="M96 305l-69 37q15 51 49 81q54 47 131 47q89 0 135 -49q32 -34 32 -92v-221q0 -47 47 -44h5v-67l-43 1q-45 1 -61.5 13t-21.5 45q-57 -68 -138 -68q-60 0 -101 42t-41 104q0 51 29 89q27 33 99 54q67 19 86 26t36 20q17 14 17 31q0 21 -21.5 35t-53.5 14q-47 0 -78 -29
q-22 -19 -38 -69zM299 176v84q-35 -19 -53 -26t-82 -27q-63 -19 -63 -73q0 -36 23.5 -58.5t61.5 -22.5q48 0 80.5 35.5t32.5 87.5zM303 643h64q-14 -58 -53.5 -90.5t-96.5 -32.5t-96.5 32.5t-53.5 90.5h65q27 -60 85 -60q59 0 86 60z" />
    <glyph glyph-name="Aogonek" unicode="&#x104;" horiz-adv-x="614" 
d="M614 0h-9q-27 -20 -37.5 -35t-10.5 -36q0 -22 15.5 -35t42.5 -13q15 0 37 6v-44q-26 -9 -58 -9q-38 0 -63.5 22.5t-25.5 56.5q0 52 60 87h-40l-71 183l-292 1l-73 -184h-88l266 667h82zM194 261h228l-97 249l-18 51l-16 -46z" />
    <glyph glyph-name="aogonek" unicode="&#x105;" horiz-adv-x="433" 
d="M426 -3h-11q-47 -33 -47 -70q0 -22 15.5 -35t42.5 -13q15 0 38 6v-44q-26 -9 -59 -9q-38 0 -63.5 22.5t-25.5 56.5q0 50 60 86q-41 4 -56.5 15.5t-19.5 42.5q-57 -67 -138 -67q-59 0 -100.5 42.5t-41.5 103.5q0 49 29 89q27 33 99 54q71 20 89 27t33 19q17 14 17 31
q0 21 -21.5 35t-53.5 14q-45 0 -72 -22.5t-44 -75.5l-69 37q15 51 49 81q54 47 131 47q89 0 135 -49q32 -34 32 -92v-221q0 -25 10 -34.5t35 -9.5h7v-67zM299 176v84q-35 -20 -52 -26.5t-83 -26.5q-63 -19 -63 -72q0 -36 23.5 -58.5t61.5 -22.5q48 0 80.5 35t32.5 87z" />
    <glyph glyph-name="Cacute" unicode="&#x106;" horiz-adv-x="617" 
d="M592 537l-66 -66q-23 58 -55 86q-54 46 -127 46q-89 0 -147 -64q-29 -32 -46.5 -87.5t-17.5 -117.5q0 -124 56.5 -196.5t152.5 -72.5q78 0 135 51q19 17 30.5 35.5t25.5 53.5l64 -75q-39 -62 -82 -92q-79 -54 -178 -54q-129 0 -212 88q-40 43 -62.5 113.5t-22.5 151.5
q0 158 83 251.5t223 93.5q74 0 131 -30q40 -20 65 -45t50 -70zM242 738l43 139h89l-80 -139h-52z" />
    <glyph glyph-name="cacute" unicode="&#x107;" horiz-adv-x="423" 
d="M421 329l-76 -29q-3 46 -22 70q-30 42 -82 42q-57 0 -91 -49t-34 -132t35 -131.5t96 -48.5q94 0 111 115l68 -41q-17 -55 -44 -83q-51 -54 -139 -54q-95 0 -150.5 66t-55.5 179t53 177t147 64q85 0 136 -54q30 -31 48 -91zM146 529l42 139h89l-80 -139h-51z" />
    <glyph glyph-name="Ccaron" unicode="&#x10c;" horiz-adv-x="617" 
d="M592 537l-66 -66q-23 58 -55 86q-54 46 -127 46q-89 0 -147 -64q-29 -32 -46.5 -87.5t-17.5 -117.5q0 -124 56.5 -196.5t152.5 -72.5q78 0 135 51q19 17 30.5 35.5t25.5 53.5l64 -75q-39 -62 -82 -92q-79 -54 -178 -54q-129 0 -212 88q-40 43 -62.5 113.5t-22.5 151.5
q0 158 83 251.5t223 93.5q74 0 131 -30q40 -20 65 -45t50 -70zM439 878l-86 -142h-88l-87 142h72l57 -93l58 93h74z" />
    <glyph glyph-name="ccaron" unicode="&#x10d;" horiz-adv-x="423" 
d="M421 329l-76 -29q-3 46 -22 70q-30 42 -82 42q-57 0 -91 -49t-34 -132t35 -131.5t96 -48.5q94 0 111 115l68 -41q-17 -55 -44 -83q-51 -54 -139 -54q-95 0 -150.5 66t-55.5 179t53 177t147 64q85 0 136 -54q30 -31 48 -91zM342 669l-86 -142h-88l-87 142h72l58 -93l57 93
h74z" />
    <glyph glyph-name="Dcaron" unicode="&#x10e;" horiz-adv-x="661" 
d="M69 0v667h247q102 0 154 -29q67 -39 105 -120t38 -183q0 -199 -116 -286q-36 -27 -79 -38t-113 -11h-236zM156 83l144 -1q68 0 102 11t60 42q57 70 57 202q0 99 -35 160q-51 87 -175 87h-153v-501zM385 878l-86 -142h-88l-87 142h72l58 -93l57 93h74z" />
    <glyph glyph-name="dcaron" unicode="&#x10f;" horiz-adv-x="590" 
d="M360 400v267h74v-667h-73v72q-52 -83 -138 -83q-82 0 -133.5 69t-51.5 178q0 103 53.5 169.5t135.5 66.5q40 0 69 -15.5t64 -56.5zM241 402q-55 0 -89 -46.5t-34 -123.5q0 -76 33 -122t88 -46q54 0 87.5 46.5t33.5 121.5q0 76 -33 123t-86 47zM577 667v-128
q0 -23 -5.5 -36.5t-25.5 -42.5q-1 -2 -9.5 -14.5t-13.5 -21.5l-37 25q8 13 11 16q32 44 32 60v28h-43v114h91z" />
    <glyph glyph-name="Dcroat" unicode="&#x110;" horiz-adv-x="661" 
d="M69 357h-53v83h53v227h247q102 0 153 -29q67 -39 105.5 -120t38.5 -184q0 -198 -116 -285q-36 -27 -79 -38t-113 -11h-236v357zM156 357v-274l144 -1q68 0 102 11t60 42q57 68 57 202q0 95 -35 159q-50 88 -175 88h-153v-144h111v-83h-111z" />
    <glyph glyph-name="dcroat" unicode="&#x111;" 
d="M360 534h-143v67h143v66h74v-66h51v-67h-51v-534h-73v72q-53 -83 -139 -83q-82 0 -133.5 69t-51.5 178q0 103 53.5 169.5t135.5 66.5q40 0 69 -15.5t65 -56.5v134zM241 402q-56 0 -90 -46.5t-34 -123.5q0 -76 33 -122t88 -46t88.5 46.5t33.5 121.5q0 76 -33 123t-86 47z
" />
    <glyph glyph-name="Emacron" unicode="&#x112;" horiz-adv-x="499" 
d="M69 0v667h400v-80h-314v-158h283v-81h-283v-267h314v-81h-400zM384 822v-63h-267v63h267z" />
    <glyph glyph-name="emacron" unicode="&#x113;" horiz-adv-x="460" 
d="M424 204l-306 1q4 -68 30 -106q32 -47 91 -47q53 0 82 32q18 20 36 73l67 -48q-37 -64 -80.5 -92.5t-104.5 -28.5q-88 0 -147 62q-55 58 -55 178q0 114 51.5 179t141.5 65q92 0 143.5 -64t51.5 -177q0 -15 -1 -27zM119 266l221 1q0 55 -21 88q-33 51 -91 51
q-93 0 -109 -140zM363 613v-63h-267v63h267z" />
    <glyph glyph-name="Edotaccent" unicode="&#x116;" horiz-adv-x="499" 
d="M69 0v667h400v-80h-314v-158h283v-81h-283v-267h314v-81h-400zM318 839v-105h-85v105h85z" />
    <glyph glyph-name="edotaccent" unicode="&#x117;" horiz-adv-x="460" 
d="M424 204l-306 1q4 -68 30 -106q32 -47 91 -47q53 0 82 32q18 20 36 73l67 -48q-37 -64 -80.5 -92.5t-104.5 -28.5q-88 0 -147 62q-55 58 -55 178q0 114 51.5 179t141.5 65q92 0 143.5 -64t51.5 -177q0 -15 -1 -27zM119 266l221 1q0 55 -21 88q-33 51 -91 51
q-93 0 -109 -140zM272 630v-105h-85v105h85z" />
    <glyph glyph-name="Eogonek" unicode="&#x118;" horiz-adv-x="499" 
d="M414 0h-345v667h400v-80h-314v-158h283v-81h-283v-267h314l1 -81h-15q-45 -32 -45 -69q0 -22 15.5 -35t42.5 -13q15 0 37 6v-44q-28 -9 -58 -9q-38 0 -63.5 22.5t-25.5 56.5q0 49 56 85z" />
    <glyph glyph-name="eogonek" unicode="&#x119;" horiz-adv-x="460" 
d="M270 -10h-4l-12 -1q-2 -1 -15 -1q-90 0 -147 62q-55 58 -55 178q0 114 51.5 179t141.5 65q91 0 143 -63.5t52 -175.5q0 -16 -1 -29l-306 1q4 -68 30 -106q32 -47 91 -47q53 0 82 32q18 20 36 73l67 -48q-15 -28 -30.5 -45.5t-52.5 -48.5q-51 -40 -51 -75q0 -22 15.5 -35
t42.5 -13q15 0 37 6v-44q-26 -9 -58 -9q-38 0 -63.5 22.5t-25.5 56.5q0 35 32 66zM119 266l221 1q0 55 -21 88q-33 51 -91 51q-93 0 -109 -140z" />
    <glyph glyph-name="Ecaron" unicode="&#x11a;" horiz-adv-x="499" 
d="M69 0v667h400v-80h-314v-158h283v-81h-283v-267h314v-81h-400zM401 878l-86 -142h-88l-87 142h72l57 -93l58 93h74z" />
    <glyph glyph-name="ecaron" unicode="&#x11b;" horiz-adv-x="460" 
d="M424 204l-306 1q4 -68 30 -106q32 -47 91 -47q53 0 82 32q18 20 36 73l67 -48q-37 -64 -80.5 -92.5t-104.5 -28.5q-88 0 -147 62q-55 58 -55 178q0 114 51.5 179t141.5 65q92 0 143.5 -64t51.5 -177q0 -15 -1 -27zM119 266l221 1q0 55 -21 88q-33 51 -91 51
q-93 0 -109 -140zM360 669l-86 -142h-88l-87 142h72l58 -93l57 93h74z" />
    <glyph glyph-name="Gbreve" unicode="&#x11e;" horiz-adv-x="698" 
d="M609 544l-68 -63q-21 54 -50 79q-49 43 -130 43q-101 0 -163 -73t-62 -193q0 -121 64.5 -195.5t169.5 -74.5q52 0 91.5 17t84.5 58v198h-265v80h351v-308q-60 -68 -123.5 -98.5t-145.5 -30.5q-146 0 -233 98q-41 46 -64.5 115t-23.5 143q0 84 27 155.5t75 115.5
q83 74 214 74q128 0 198 -70q25 -24 53 -70zM435 852h64q-14 -58 -53.5 -90.5t-96.5 -32.5t-96.5 32.5t-53.5 90.5h65q27 -60 85 -60q59 0 86 60z" />
    <glyph glyph-name="gbreve" unicode="&#x11f;" horiz-adv-x="502" 
d="M435 461v-472q0 -65 -10.5 -101t-35.5 -58q-48 -43 -155 -43q-80 0 -125.5 37t-45.5 102q0 30 16 60l71 -43q-6 -20 -6 -29q0 -29 25.5 -45.5t68.5 -16.5q67 0 98 33q24 26 24 92v88q-60 -75 -143 -75q-67 0 -117 53q-27 29 -43 82t-16 115q0 101 52.5 166t133.5 65
q76 0 133 -71v61h75zM239 408q-57 0 -88 -45t-31 -128t31.5 -130.5t86.5 -47.5q56 0 88 45.5t32 125.5q0 85 -31.5 132.5t-87.5 47.5zM336 643h65q-14 -58 -53.5 -90.5t-96.5 -32.5t-97 32.5t-53 90.5h64q27 -60 86 -60q58 0 85 60z" />
    <glyph glyph-name="Gcommaaccent" unicode="&#x122;" horiz-adv-x="698" 
d="M609 544l-68 -63q-21 54 -50 79q-49 43 -130 43q-101 0 -163 -73t-62 -193q0 -121 64.5 -195.5t169.5 -74.5q52 0 91.5 17t84.5 58v198h-265v80h351v-308q-60 -68 -123.5 -98.5t-145.5 -30.5q-146 0 -233 98q-41 46 -64.5 115t-23.5 143q0 84 27 155.5t75 115.5
q83 74 214 74q128 0 198 -70q25 -24 53 -70zM394 -78v-128q0 -23 -5.5 -36.5t-25.5 -42.5q-1 -2 -9.5 -14.5t-13.5 -21.5l-37 25q8 13 11 16q32 44 32 60v28h-43v114h91z" />
    <glyph glyph-name="gcommaaccent" unicode="&#x123;" horiz-adv-x="502" 
d="M435 461v-472q0 -65 -10.5 -101t-35.5 -58q-48 -43 -155 -43q-80 0 -125.5 37t-45.5 102q0 30 16 60l71 -43q-6 -20 -6 -29q0 -29 25.5 -45.5t68.5 -16.5q67 0 98 33q24 26 24 92v88q-60 -75 -143 -75q-67 0 -117 53q-27 29 -43 82t-16 115q0 101 52.5 166t133.5 65
q76 0 133 -71v61h75zM239 408q-57 0 -88 -45t-31 -128t31.5 -130.5t86.5 -47.5q56 0 88 45.5t32 125.5q0 85 -31.5 132.5t-87.5 47.5zM181 519v128q0 23 5.5 36.5t25.5 42.5q1 2 9.5 14.5t13.5 21.5l36 -25q-8 -13 -11 -16q-31 -44 -31 -60v-28h42v-114h-90z" />
    <glyph glyph-name="Imacron" unicode="&#x12a;" horiz-adv-x="222" 
d="M68 0v667h86v-667h-86zM245 822v-63h-267v63h267z" />
    <glyph glyph-name="imacron" unicode="&#x12b;" horiz-adv-x="196" 
d="M64 0v461h73v-461h-73zM232 613v-63h-267v63h267z" />
    <glyph glyph-name="Iogonek" unicode="&#x12e;" horiz-adv-x="222" 
d="M153 0h-5q-26 -19 -36.5 -34.5t-10.5 -36.5q0 -22 15.5 -35t42.5 -13q15 0 37 7v-44q-29 -10 -58 -10q-38 0 -63.5 22.5t-25.5 56.5q0 51 59 87h-41v667h86v-667z" />
    <glyph glyph-name="iogonek" unicode="&#x12f;" horiz-adv-x="196" 
d="M137 0h-9q-27 -20 -37 -35t-10 -36q0 -22 15.5 -35t42.5 -13q13 0 37 7v-44q-26 -10 -58 -10q-38 0 -63.5 22.5t-25.5 56.5q0 53 59 87h-24v461h73v-461zM64 536v108h73v-108h-73z" />
    <glyph glyph-name="Idotaccent" unicode="&#x130;" horiz-adv-x="222" 
d="M68 0v667h86v-667h-86zM154 839v-105h-85v105h85z" />
    <glyph glyph-name="dotlessi" unicode="&#x131;" horiz-adv-x="196" 
d="M63 0v461h73v-461h-73z" />
    <glyph glyph-name="Kcommaaccent" unicode="&#x136;" horiz-adv-x="614" 
d="M65 0v667h85v-304l328 304l118 -1l-208 -194l206 -472h-91l-180 414l-173 -163v-251h-85zM351 -78v-128q0 -23 -5.5 -36.5t-25.5 -42.5q-1 -2 -9.5 -14.5t-13.5 -21.5l-36 25q8 13 11 16q31 44 31 60v28h-42v114h90z" />
    <glyph glyph-name="kcommaaccent" unicode="&#x137;" horiz-adv-x="433" 
d="M64 0v667h75v-373l170 167h98l-133 -131l156 -331l-78 1l-134 276l-79 -76v-200h-75zM261 -77v-128q0 -23 -5.5 -36.5t-25.5 -42.5q-1 -2 -9.5 -14.5t-13.5 -21.5l-37 25q8 13 11 16q32 44 32 60v28h-43v114h91z" />
    <glyph glyph-name="Lacute" unicode="&#x139;" horiz-adv-x="499" 
d="M66 0v667h85v-586h334v-81h-419zM125 734l42 140h90l-80 -140h-52z" />
    <glyph glyph-name="lacute" unicode="&#x13a;" horiz-adv-x="238" 
d="M63 0v667h74v-667h-74zM92 705l43 139h89l-80 -139h-52z" />
    <glyph glyph-name="Lcommaaccent" unicode="&#x13b;" horiz-adv-x="499" 
d="M66 0v667h85v-586h334v-81h-419zM294 -78v-128q0 -23 -5.5 -36.5t-25.5 -42.5q-1 -2 -9.5 -14.5t-13.5 -21.5l-37 25q8 13 11 16q32 44 32 60v28h-43v114h91z" />
    <glyph glyph-name="lcommaaccent" unicode="&#x13c;" horiz-adv-x="197" 
d="M63 0v667h74v-667h-74zM143 -77v-128q0 -23 -5.5 -36.5t-25.5 -42.5q-1 -2 -9.5 -14.5t-13.5 -21.5l-37 25q8 13 11 16q32 44 32 60v28h-43v114h91z" />
    <glyph glyph-name="Lcaron" unicode="&#x13d;" horiz-adv-x="499" 
d="M66 0v667h85v-586h334v-81h-419zM305 664v-128q0 -23 -5.5 -36.5t-25.5 -42.5q-1 -2 -9.5 -14.5t-13.5 -21.5l-37 25q8 13 11 16q32 44 32 60v28h-43v114h91z" />
    <glyph glyph-name="lcaron" unicode="&#x13e;" horiz-adv-x="290" 
d="M63 0v667h74v-667h-74zM277 667v-128q0 -23 -5.5 -36.5t-25.5 -42.5q-1 -2 -9.5 -14.5t-13.5 -21.5l-37 25q8 13 11 16q32 44 32 60v28h-43v114h91z" />
    <glyph glyph-name="Lslash" unicode="&#x141;" horiz-adv-x="499" 
d="M66 179l-47 -56l-51 43l98 117v384h85v-284l40 48l51 -43l-91 -108v-199h334v-81h-419v179z" />
    <glyph glyph-name="lslash" unicode="&#x142;" horiz-adv-x="197" 
d="M63 213l-54 -65l-51 43l105 126v350h74v-262l43 52l52 -43l-95 -113v-301h-74v213z" />
    <glyph glyph-name="Nacute" unicode="&#x143;" horiz-adv-x="670" 
d="M68 0v667h122l294 -490l36 -70v560h85v-667h-109l-303 505l-40 72v-577h-85zM268 738l43 139h89l-80 -139h-52z" />
    <glyph glyph-name="nacute" unicode="&#x144;" horiz-adv-x="472" 
d="M62 0v461h74v-66q27 41 57.5 59t74.5 18q85 0 124 -66q19 -34 19 -100v-306h-74v272q0 62 -16 91q-22 40 -71 40q-44 0 -78.5 -37t-34.5 -86v-280h-75zM170 529l42 139h90l-80 -139h-52z" />
    <glyph glyph-name="Ncommaaccent" unicode="&#x145;" horiz-adv-x="670" 
d="M68 0v667h122l294 -490l36 -70v560h85v-667h-109l-303 505l-40 72v-577h-85zM379 -78v-128q0 -23 -5.5 -36.5t-25.5 -42.5q-1 -2 -9.5 -14.5t-13.5 -21.5l-37 25q8 13 11 16q32 44 32 60v28h-43v114h91z" />
    <glyph glyph-name="ncommaaccent" unicode="&#x146;" horiz-adv-x="472" 
d="M62 0v461h74v-66q27 41 57.5 59t74.5 18q85 0 124 -66q19 -34 19 -100v-306h-74v272q0 62 -16 91q-22 40 -71 40q-44 0 -78.5 -37t-34.5 -86v-280h-75zM281 -77v-128q0 -23 -5.5 -36.5t-25.5 -42.5q-1 -2 -9.5 -14.5t-13.5 -21.5l-37 25q8 13 11 16q32 44 32 60v28h-43
v114h91z" />
    <glyph glyph-name="Ncaron" unicode="&#x147;" horiz-adv-x="670" 
d="M68 0v667h122l294 -490l36 -70v560h85v-667h-109l-303 505l-40 72v-577h-85zM465 878l-86 -142h-88l-87 142h72l57 -93l58 93h74z" />
    <glyph glyph-name="ncaron" unicode="&#x148;" horiz-adv-x="472" 
d="M62 0v461h74v-66q27 41 57.5 59t74.5 18q85 0 124 -66q19 -34 19 -100v-306h-74v272q0 62 -16 91q-22 40 -71 40q-44 0 -78.5 -37t-34.5 -86v-280h-75zM366 669l-86 -142h-88l-87 142h73l57 -93l57 93h74z" />
    <glyph glyph-name="Omacron" unicode="&#x14c;" horiz-adv-x="700" 
d="M344 683q143 0 228 -96.5t85 -258.5q0 -158 -83.5 -251.5t-225.5 -93.5q-138 0 -221 93.5t-83 249.5q0 164 81 260.5t219 96.5zM344 603q-98 0 -151.5 -73.5t-53.5 -206.5q0 -124 55 -192.5t155 -68.5q96 0 152 64q28 31 44.5 86.5t16.5 120.5q0 125 -58.5 197.5
t-159.5 72.5zM484 822v-63h-267v63h267z" />
    <glyph glyph-name="omacron" unicode="&#x14d;" horiz-adv-x="472" 
d="M236 470q94 0 148.5 -66t54.5 -181q0 -130 -69 -190q-57 -49 -134 -49q-93 0 -148 67t-55 180q0 109 55 174t148 65zM238 408q-55 0 -89 -50t-34 -132q0 -85 34 -132.5t94 -47.5q51 0 83 48.5t32 125.5q0 87 -32 137.5t-88 50.5zM370 613v-63h-267v63h267z" />
    <glyph glyph-name="Ohungarumlaut" unicode="&#x150;" horiz-adv-x="700" 
d="M350 683q138 0 222.5 -97.5t84.5 -256.5t-83.5 -252.5t-225.5 -93.5q-138 0 -221 93.5t-83 248.5q0 167 81.5 262.5t224.5 95.5zM344 603q-113 0 -163 -92q-42 -76 -42 -186q0 -125 55 -194t155 -69q94 0 152 64q28 31 44.5 86.5t16.5 120.5q0 125 -58.5 197.5
t-159.5 72.5zM236 736l43 139h89l-80 -139h-52zM388 736l42 139h89l-80 -139h-51z" />
    <glyph glyph-name="ohungarumlaut" unicode="&#x151;" horiz-adv-x="472" 
d="M240 470q85 0 142 -62t57 -184q0 -131 -69 -191q-57 -49 -134 -49q-93 0 -148 67t-55 180q0 111 55.5 175t151.5 64zM238 408q-55 0 -89 -50t-34 -132q0 -85 34 -132.5t94 -47.5q51 0 83 48.5t32 125.5q0 87 -32 137.5t-88 50.5zM127 527l42 140h90l-80 -140h-52z
M278 527l42 140h90l-80 -140h-52z" />
    <glyph glyph-name="OE" unicode="&#x152;" horiz-adv-x="989" 
d="M559 601v66h399v-80h-313v-158h283v-81h-283v-267h313v-81h-399v57q-56 -41 -102.5 -57.5t-106.5 -16.5q-139 0 -221 91q-39 44 -62 113.5t-23 143.5q0 85 28.5 161t76.5 120q76 70 201 70q89 0 155 -40q20 -12 54 -41zM344 602q-98 0 -151.5 -73t-53.5 -206
q0 -123 55 -191.5t155 -68.5q95 0 153 64q28 31 44.5 86.5t16.5 118.5q0 125 -59 197.5t-160 72.5z" />
    <glyph glyph-name="oe" unicode="&#x153;" horiz-adv-x="776" 
d="M673 157l67 -48q-37 -64 -80.5 -92.5t-103.5 -28.5q-90 0 -157 71q-43 -42 -79.5 -58.5t-83.5 -16.5q-93 0 -148 67.5t-55 180.5q0 108 54.5 173t145.5 65q94 0 165 -71q35 41 67.5 57t79.5 16q92 0 144 -63.5t52 -177.5q0 -15 -1 -27l-306 1q4 -68 30 -106
q32 -47 91 -47q53 0 82 32q17 19 36 73zM238 409q-55 0 -89 -50t-34 -132q0 -85 34 -133t95 -48q51 0 83 49t32 126q0 87 -32.5 137.5t-88.5 50.5zM435 266l221 1q0 55 -21 88q-33 51 -91 51q-93 0 -109 -140z" />
    <glyph glyph-name="Racute" unicode="&#x154;" horiz-adv-x="614" 
d="M65 0v667h308q80 0 124 -24q34 -20 54 -58.5t20 -85.5q0 -80 -50 -119q-36 -28 -117 -41l191 -339h-99l-182 334h-165v-334h-84zM149 417h241q95 0 95 83q0 43 -26 66t-75 23h-235v-172zM241 738l43 139h89l-80 -139h-52z" />
    <glyph glyph-name="racute" unicode="&#x155;" horiz-adv-x="301" 
d="M63 0v461h73v-69q51 78 116 78h2l44 -5v-80q-35 8 -50 8q-46 0 -79 -38.5t-33 -93.5v-261h-73zM85 529l42 139h90l-80 -139h-52z" />
    <glyph glyph-name="Rcommaaccent" unicode="&#x156;" horiz-adv-x="614" 
d="M65 0v667h308q80 0 124 -24q34 -20 54 -58.5t20 -85.5q0 -80 -50 -119q-36 -28 -117 -41l191 -339h-99l-182 334h-165v-334h-84zM149 417h241q95 0 95 83q0 43 -26 66t-75 23h-235v-172zM352 -78v-128q0 -23 -5.5 -36.5t-25.5 -42.5q-1 -2 -9.5 -14.5t-13.5 -21.5l-37 25
q8 13 11 16q32 44 32 60v28h-43v114h91z" />
    <glyph glyph-name="rcommaaccent" unicode="&#x157;" horiz-adv-x="301" 
d="M62 0v461h73v-69q51 78 116 78h2l44 -5v-80q-35 8 -50 8q-46 0 -79 -38.5t-33 -93.5v-261h-73zM144 -77v-128q0 -23 -5.5 -36.5t-25.5 -42.5q-1 -2 -9.5 -14.5t-13.5 -21.5l-37 25q8 13 11 16q32 44 32 60v28h-43v114h91z" />
    <glyph glyph-name="Rcaron" unicode="&#x158;" horiz-adv-x="614" 
d="M65 0v667h308q80 0 124 -24q34 -20 54 -58.5t20 -85.5q0 -80 -50 -119q-36 -28 -117 -41l191 -339h-99l-182 334h-165v-334h-84zM149 417h241q95 0 95 83q0 43 -26 66t-75 23h-235v-172zM397 878l-86 -142h-88l-87 142h72l57 -93l58 93h74z" />
    <glyph glyph-name="rcaron" unicode="&#x159;" horiz-adv-x="301" 
d="M63 0v461h73v-69q51 78 116 78h2l44 -5v-80q-35 8 -50 8q-46 0 -79 -38.5t-33 -93.5v-261h-73zM281 669l-86 -142h-88l-87 142h72l58 -93l57 93h74z" />
    <glyph glyph-name="Sacute" unicode="&#x15a;" horiz-adv-x="577" 
d="M20 153l80 70q3 -54 33 -92q54 -72 158 -72q74 0 119.5 35.5t45.5 94.5q0 48 -34 74q-22 17 -54.5 29t-108.5 32q-108 29 -150 62q-53 43 -53 116q0 82 63 132t166 50q81 0 145 -36q37 -22 58.5 -46.5t41.5 -66.5l-76 -62q-13 58 -40 87q-46 49 -134 49q-61 0 -99 -28.5
t-38 -74.5q0 -27 15 -45q13 -15 50.5 -31t81.5 -25q167 -35 218 -105q33 -47 33 -107q0 -95 -69 -152.5t-182 -57.5q-65 0 -122.5 22.5t-95.5 63.5q-25 28 -52 84zM223 738l42 139h89l-80 -139h-51z" />
    <glyph glyph-name="sacute" unicode="&#x15b;" horiz-adv-x="421" 
d="M16 127l72 34q1 -50 34 -79t89 -29q45 0 74.5 19.5t29.5 50.5q0 28 -23 46q-17 14 -34 20.5t-99 31.5q-119 35 -119 126q0 55 45 91t113 36q85 0 137 -49q26 -24 40 -79l-71 -33q-9 50 -30 71q-29 27 -78 27q-35 0 -55.5 -15t-20.5 -42q0 -29 29.5 -47.5t102.5 -36.5
q69 -17 105.5 -53.5t36.5 -87.5q0 -63 -51.5 -103t-131.5 -40q-97 0 -151 57q-27 29 -44 84zM145 529l42 139h90l-80 -139h-52z" />
    <glyph glyph-name="Scedilla" unicode="&#x15e;" horiz-adv-x="577" 
d="M334 -14v-42q-1 -39 -7.5 -59t-28.5 -50h-51q20 31 24.5 40t11.5 33h-36l1 78q-166 23 -228 167l80 70q2 -52 33 -92q54 -71 158 -71q74 0 119.5 36t45.5 94q0 48 -34 74q-37 28 -163 61q-108 28 -150 62q-53 43 -53 116q0 81 63 131t166 50q81 0 145 -36
q37 -22 59 -46.5t41 -66.5l-76 -62q-13 58 -40 87q-46 49 -134 49q-61 0 -99 -28.5t-38 -74.5q0 -27 15 -45q29 -34 132 -56q167 -35 218 -105q33 -47 33 -107q0 -85 -54 -139t-153 -68z" />
    <glyph glyph-name="scedilla" unicode="&#x15f;" horiz-adv-x="421" 
d="M248 -11v-44q-1 -40 -7.5 -59.5t-28.5 -50.5h-50q20 31 24 40t11 33h-35v83q-60 13 -95.5 46t-50.5 91l72 34q1 -50 34 -79.5t89 -29.5q45 0 74.5 19.5t29.5 50.5q0 28 -23 46q-17 14 -34 20.5t-99 31.5q-119 35 -119 126q0 55 45 91t113 36q85 0 137 -49q26 -24 40 -79
l-71 -33q-9 50 -30 71q-29 27 -78 27q-36 0 -56 -15t-20 -42q0 -29 29.5 -47.5t102.5 -36.5q69 -17 105.5 -53.5t36.5 -87.5q0 -55 -39.5 -92.5t-106.5 -47.5z" />
    <glyph glyph-name="Scaron" unicode="&#x160;" horiz-adv-x="577" 
d="M20 153l80 70q3 -54 33 -92q54 -72 158 -72q74 0 119.5 35.5t45.5 94.5q0 48 -34 74q-22 17 -54.5 29t-108.5 32q-108 29 -150 62q-53 43 -53 116q0 82 63 132t166 50q81 0 145 -36q37 -22 58.5 -46.5t41.5 -66.5l-76 -62q-13 58 -40 87q-46 49 -134 49q-61 0 -99 -28.5
t-38 -74.5q0 -27 15 -45q13 -15 50.5 -31t81.5 -25q167 -35 218 -105q33 -47 33 -107q0 -95 -69 -152.5t-182 -57.5q-65 0 -122.5 22.5t-95.5 63.5q-25 28 -52 84zM411 892l-86 -142h-88l-87 142h73l57 -93l57 93h74z" />
    <glyph glyph-name="scaron" unicode="&#x161;" horiz-adv-x="421" 
d="M16 127l72 34q1 -50 34 -79t89 -29q45 0 74.5 19.5t29.5 50.5q0 28 -23 46q-17 14 -34 20.5t-99 31.5q-119 35 -119 126q0 55 45 91t113 36q85 0 137 -49q26 -24 40 -79l-71 -33q-9 50 -30 71q-29 27 -78 27q-35 0 -55.5 -15t-20.5 -42q0 -29 29.5 -47.5t102.5 -36.5
q69 -17 105.5 -53.5t36.5 -87.5q0 -63 -51.5 -103t-131.5 -40q-97 0 -151 57q-27 29 -44 84zM336 682l-86 -142h-88l-87 142h72l57 -93l58 93h74z" />
    <glyph glyph-name="Tcommaaccent" unicode="&#x162;" horiz-adv-x="510" 
d="M4 586v81h502v-81h-207v-586h-87v586h-208zM300 -78v-128q0 -23 -5.5 -36.5t-25.5 -42.5q-1 -2 -9.5 -14.5t-13.5 -21.5l-37 25q8 13 11 16q32 44 32 60v28h-43v114h91z" />
    <glyph glyph-name="tcommaaccent" unicode="&#x163;" horiz-adv-x="264" 
d="M7 391v61h77v144l76 80v-224h74v-61h-74v-271q0 -37 8 -50.5t30 -13.5q9 0 32 4v-67h-54q-63 0 -80 33q-12 23 -12 85v280h-77zM176 -77v-128q0 -23 -5.5 -36.5t-25.5 -42.5q-1 -2 -9.5 -14.5t-13.5 -21.5l-36 25q8 13 11 16q31 44 31 60v28h-42v114h90z" />
    <glyph glyph-name="Tcaron" unicode="&#x164;" horiz-adv-x="510" 
d="M4 586v81h502v-81h-207v-586h-87v586h-208zM386 878l-86 -142h-88l-87 142h72l57 -93l57 93h75z" />
    <glyph glyph-name="tcaron" unicode="&#x165;" horiz-adv-x="303" 
d="M7 391v61h77v144l76 80v-224h74v-61h-74v-271q0 -37 8 -50.5t30 -13.5q9 0 32 4v-67h-54q-63 0 -80 33q-12 23 -12 85v280h-77zM296 781v-128q0 -23 -5.5 -36.5t-25.5 -42.5q-1 -2 -9.5 -14.5t-13.5 -21.5l-37 25q8 13 11 16q32 44 32 60v28h-43v114h91z" />
    <glyph glyph-name="Umacron" unicode="&#x16a;" horiz-adv-x="630" 
d="M69 667h86v-435q0 -80 43 -125t119 -45q74 0 119.5 44t45.5 115v446h85v-446q0 -118 -68 -178q-69 -59 -179 -59q-74 0 -133 28.5t-87 78.5q-31 53 -31 141v435zM449 822v-63h-267v63h267z" />
    <glyph glyph-name="umacron" unicode="&#x16b;" horiz-adv-x="471" 
d="M59 461h74v-317q0 -41 23 -65t62 -24q50 0 84 40t34 98v268h73v-461h-73v59q-57 -71 -136 -71q-38 0 -70 17t-48 46q-23 39 -23 119v291zM369 613v-63h-267v63h267z" />
    <glyph glyph-name="Uring" unicode="&#x16e;" horiz-adv-x="630" 
d="M69 667h86v-435q0 -80 43 -125t119 -45q74 0 119.5 44t45.5 115v446h85v-446q0 -118 -68 -178q-69 -59 -179 -59q-74 0 -133 28.5t-87 78.5q-31 53 -31 141v435zM316 912q37 0 62.5 -25.5t25.5 -63.5q0 -36 -26 -61.5t-62 -25.5q-37 0 -63 25.5t-26 62.5t26 62.5t63 25.5
zM363 824v1q0 19 -14 32.5t-33 13.5q-20 0 -34 -13.5t-14 -33.5t14 -33.5t33 -13.5q20 0 34 14t14 33z" />
    <glyph glyph-name="uring" unicode="&#x16f;" horiz-adv-x="471" 
d="M59 461h74v-317q0 -41 23 -65t62 -24q50 0 84 40t34 98v268h73v-461h-73v59q-57 -71 -136 -71q-38 0 -70 17t-48 46q-23 39 -23 119v291zM236 704q37 0 62.5 -26t25.5 -64q0 -36 -26 -61.5t-62 -25.5q-37 0 -63 26t-26 63t26 62.5t63 25.5zM283 615v1q0 19 -14 33t-33 14
q-20 0 -34 -13.5t-14 -33.5t13.5 -34t33.5 -14t34 14t14 33z" />
    <glyph glyph-name="Uhungarumlaut" unicode="&#x170;" horiz-adv-x="630" 
d="M69 667h86v-435q0 -80 43 -125t119 -45q74 0 119.5 44t45.5 115v446h85v-446q0 -118 -68 -178q-69 -59 -179 -59q-74 0 -133 28.5t-87 78.5q-31 53 -31 141v435zM209 736l42 139h90l-80 -139h-52zM360 736l42 139h90l-80 -139h-52z" />
    <glyph glyph-name="uhungarumlaut" unicode="&#x171;" horiz-adv-x="471" 
d="M59 461h74v-317q0 -41 23 -65t62 -24q50 0 84 40t34 98v268h73v-461h-73v59q-57 -71 -136 -71q-38 0 -70 17t-48 46q-23 39 -23 119v291zM127 527l43 140h89l-80 -140h-52zM278 527l43 140h89l-80 -140h-52z" />
    <glyph glyph-name="Uogonek" unicode="&#x172;" horiz-adv-x="630" 
d="M567 667v-446q0 -109 -61 -169q-19 -18 -69 -53q-38 -29 -38 -60q0 -22 15.5 -35t42.5 -13q13 0 37 6v-44q-28 -9 -58 -9q-38 0 -63.5 22.5t-25.5 56.5q0 35 33 67q-29 -7 -56 -7q-77 0 -136.5 28.5t-87.5 78.5q-31 55 -31 142v435h86v-435q0 -81 42.5 -126t119.5 -45
q73 0 119 44.5t46 115.5v446h85z" />
    <glyph glyph-name="uogonek" unicode="&#x173;" horiz-adv-x="471" 
d="M409 0h-8q-44 -33 -44 -69q0 -22 15.5 -35t42.5 -13q14 0 37 7v-44q-26 -10 -58 -10q-38 0 -63.5 22.5t-25.5 56.5q0 50 56 85h-25v59q-57 -71 -136 -71q-38 0 -70 17t-48 46q-23 39 -23 119v291h74v-317q0 -41 23 -65t62 -24q50 0 84 40t34 98v268h73v-461z" />
    <glyph glyph-name="Ydieresis" unicode="&#x178;" horiz-adv-x="558" 
d="M231 280l-227 387l91 -1l181 -306l183 307l94 -1l-237 -386v-280h-85v280zM164 733v109h81v-109h-81zM310 733v109h83v-109h-83z" />
    <glyph glyph-name="Zacute" unicode="&#x179;" horiz-adv-x="539" 
d="M11 0v38l379 549h-327v80h453v-43l-375 -548h376l-1 -76h-505zM204 738l42 139h89l-80 -139h-51z" />
    <glyph glyph-name="zacute" unicode="&#x17a;" horiz-adv-x="382" 
d="M29 0v51l205 346h-192v64h302v-28l-223 -373h227v-60h-319zM125 529l43 139h89l-80 -139h-52z" />
    <glyph glyph-name="Zdotaccent" unicode="&#x17b;" horiz-adv-x="539" 
d="M11 0v38l379 549h-327v80h453v-43l-375 -548h376l-1 -76h-505zM312 839v-105h-85v105h85z" />
    <glyph glyph-name="zdotaccent" unicode="&#x17c;" horiz-adv-x="382" 
d="M29 0v51l205 346h-192v64h302v-28l-223 -373h227v-60h-319zM233 630v-105h-85v105h85z" />
    <glyph glyph-name="Zcaron" unicode="&#x17d;" horiz-adv-x="539" 
d="M11 0v38l379 549h-327v80h453v-43l-375 -548h376l-1 -76h-505zM395 875l-86 -142h-88l-87 142h72l57 -93l57 93h75z" />
    <glyph glyph-name="zcaron" unicode="&#x17e;" horiz-adv-x="382" 
d="M29 0v51l205 346h-192v64h302v-28l-223 -373h227v-60h-319zM319 670l-86 -142h-88l-87 142h73l57 -93l57 93h74z" />
    <glyph glyph-name="florin" unicode="&#x192;" horiz-adv-x="537" 
d="M51 -145l12 64q22 -2 27 -2q19 0 33.5 10t17.5 26l87 437h-75l12 60h75l25 127q11 53 36 71q33 23 92 23h2l34 -2l-12 -64q-15 3 -27 3q-20 0 -34 -10.5t-17 -26.5l-23 -121h76l-11 -60h-77l-88 -443q-12 -54 -37 -71q-31 -23 -91 -23h-3z" />
    <glyph glyph-name="uni01D3" unicode="&#x1d3;" horiz-adv-x="630" 
d="M69 667h86v-435q0 -80 43 -125t119 -45q74 0 119.5 44t45.5 115v446h85v-446q0 -118 -68 -178q-69 -59 -179 -59q-74 0 -133 28.5t-87 78.5q-31 53 -31 141v435zM446 878l-86 -142h-88l-87 142h72l58 -93l57 93h74z" />
    <glyph glyph-name="Scommaaccent" unicode="&#x218;" horiz-adv-x="577" 
d="M20 153l80 70q3 -54 33 -92q54 -72 158 -72q74 0 119.5 35.5t45.5 94.5q0 48 -34 74q-22 17 -54.5 29t-108.5 32q-108 29 -150 62q-53 43 -53 116q0 82 63 132t166 50q81 0 145 -36q37 -22 58.5 -46.5t41.5 -66.5l-76 -62q-13 58 -40 87q-46 49 -134 49q-61 0 -99 -28.5
t-38 -74.5q0 -27 15 -45q13 -15 50.5 -31t81.5 -25q167 -35 218 -105q33 -47 33 -107q0 -95 -69 -152.5t-182 -57.5q-65 0 -122.5 22.5t-95.5 63.5q-25 28 -52 84zM325 -78v-128q0 -23 -5.5 -36.5t-25.5 -42.5q-1 -2 -9.5 -14.5t-13.5 -21.5l-37 25q8 13 11 16q32 44 32 60
v28h-43v114h91z" />
    <glyph glyph-name="scommaaccent" unicode="&#x219;" horiz-adv-x="421" 
d="M16 127l72 34q1 -50 34 -79t89 -29q45 0 74.5 19.5t29.5 50.5q0 28 -23 46q-17 14 -34 20.5t-99 31.5q-119 35 -119 126q0 55 45 91t113 36q85 0 137 -49q26 -24 40 -79l-71 -33q-9 50 -30 71q-29 27 -78 27q-35 0 -55.5 -15t-20.5 -42q0 -29 29.5 -47.5t102.5 -36.5
q69 -17 105.5 -53.5t36.5 -87.5q0 -63 -51.5 -103t-131.5 -40q-97 0 -151 57q-27 29 -44 84zM255 -77v-128q0 -23 -5.5 -36.5t-25.5 -42.5q-1 -2 -9.5 -14.5t-13.5 -21.5l-36 25q8 13 11 16q31 44 31 60v28h-42v114h90z" />
    <glyph glyph-name="uni021A" unicode="&#x21a;" horiz-adv-x="510" 
d="M4 586v81h502v-81h-207v-586h-87v586h-208zM300 -78v-128q0 -23 -5.5 -36.5t-25.5 -42.5q-1 -2 -9.5 -14.5t-13.5 -21.5l-37 25q8 13 11 16q32 44 32 60v28h-43v114h91z" />
    <glyph glyph-name="uni021B" unicode="&#x21b;" horiz-adv-x="264" 
d="M7 391v61h77v144l76 80v-224h74v-61h-74v-271q0 -37 8 -50.5t30 -13.5q9 0 32 4v-67h-54q-63 0 -80 33q-12 23 -12 85v280h-77zM176 -77v-128q0 -23 -5.5 -36.5t-25.5 -42.5q-1 -2 -9.5 -14.5t-13.5 -21.5l-36 25q8 13 11 16q31 44 31 60v28h-42v114h90z" />
    <glyph glyph-name="circumflex" unicode="&#x2c6;" horiz-adv-x="328" 
d="M33 529l86 142h88l87 -142h-72l-58 93l-57 -93h-74z" />
    <glyph glyph-name="caron" unicode="&#x2c7;" horiz-adv-x="328" 
d="M294 669l-86 -142h-88l-87 142h72l58 -93l57 93h74z" />
    <glyph glyph-name="uni02C9" unicode="&#x2c9;" 
d="M384 613v-63h-267v63h267z" />
    <glyph glyph-name="breve" unicode="&#x2d8;" 
d="M336 643h64q-14 -58 -53.5 -90.5t-96.5 -32.5t-96.5 32.5t-53.5 90.5h65q27 -60 85 -60t86 60z" />
    <glyph glyph-name="dotaccent" unicode="&#x2d9;" 
d="M293 630v-105h-85v105h85z" />
    <glyph glyph-name="ring" unicode="&#x2da;" 
d="M251 704q37 0 62.5 -26t25.5 -64q0 -36 -26 -61.5t-62 -25.5q-37 0 -63 26t-26 63t26 62.5t63 25.5zM297 615v1q0 20 -13.5 33.5t-33.5 13.5t-33.5 -13.5t-13.5 -33.5t13.5 -34t33.5 -14t33.5 14t13.5 33z" />
    <glyph glyph-name="ogonek" unicode="&#x2db;" horiz-adv-x="153" 
d="M67 3l38 -1q-43 -31 -43 -68q0 -22 15.5 -35t42.5 -13q13 0 37 6v-44q-28 -9 -58 -9q-38 0 -63.5 22.5t-25.5 56.5q0 50 57 85z" />
    <glyph glyph-name="tilde" unicode="&#x2dc;" horiz-adv-x="355" 
d="M81 534h-48q3 39 29 67.5t58 28.5q31 0 84 -24q22 -10 36 -10q17 0 34 28h48q-9 -45 -31 -70.5t-52 -25.5q-27 0 -70 19q-35 15 -56 15q-19 0 -32 -28z" />
    <glyph glyph-name="hungarumlaut" unicode="&#x2dd;" 
d="M139 523l42 140h90l-80 -140h-52zM290 523l43 140h89l-80 -140h-52z" />
    <glyph glyph-name="uni2011" unicode="&#x2011;" horiz-adv-x="302" 
d="M32 231v63h234v-63h-234z" />
    <glyph glyph-name="figuredash" unicode="&#x2012;" horiz-adv-x="686" 
d="M73 226v63h539v-63h-539z" />
    <glyph glyph-name="endash" unicode="&#x2013;" horiz-adv-x="686" 
d="M73 226v63h539v-63h-539z" />
    <glyph glyph-name="emdash" unicode="&#x2014;" horiz-adv-x="786" 
d="M33 226v63h719v-63h-719z" />
    <glyph glyph-name="afii00208" unicode="&#x2015;" horiz-adv-x="786" 
d="M33 226v63h719v-63h-719z" />
    <glyph glyph-name="quoteleft" unicode="&#x2018;" horiz-adv-x="157" 
d="M36 433v128q0 23 5.5 36.5t25.5 42.5q1 2 9.5 14.5t13.5 21.5l37 -26q-10 -14 -11 -15q-32 -44 -32 -60v-28h43v-114h-91z" />
    <glyph glyph-name="quoteright" unicode="&#x2019;" horiz-adv-x="157" 
d="M127 676v-128q0 -23 -5.5 -36.5t-25.5 -42.5q-1 -2 -9.5 -14.5t-13.5 -21.5l-37 25q8 13 11 16q32 44 32 60v28h-43v114h91z" />
    <glyph glyph-name="quotesinglbase" unicode="&#x201a;" horiz-adv-x="157" 
d="M124 114v-128q0 -23 -5.5 -36.5t-25.5 -42.5q-1 -2 -9.5 -14.5t-13.5 -21.5l-37 25l4.5 6.5t4 6t2.5 3.5q32 44 32 60v28h-43v114h91z" />
    <glyph glyph-name="quotedblleft" unicode="&#x201c;" horiz-adv-x="303" 
d="M36 433v128q0 23 5.5 36.5t25.5 42.5q1 2 9.5 14.5t13.5 21.5l37 -26q-10 -14 -11 -15q-32 -44 -32 -60v-28h43v-114h-91zM181 433v128q0 23 5.5 36.5t25.5 42.5q1 2 9.5 14.5t13.5 21.5l37 -26q-10 -14 -11 -15q-32 -44 -32 -60v-28h43v-114h-91z" />
    <glyph glyph-name="quotedblright" unicode="&#x201d;" horiz-adv-x="303" 
d="M272 676v-128q0 -23 -5.5 -36.5t-25.5 -42.5q-1 -2 -9.5 -14.5t-13.5 -21.5l-37 25q8 13 11 16q32 44 32 60v28h-43v114h91zM127 676v-128q0 -23 -5.5 -36.5t-25.5 -42.5q-1 -2 -9.5 -14.5t-13.5 -21.5l-37 25q8 13 11 16q32 44 32 60v28h-43v114h91z" />
    <glyph glyph-name="quotedblbase" unicode="&#x201e;" horiz-adv-x="303" 
d="M269 114v-128q0 -23 -5.5 -36.5t-25.5 -42.5q-1 -2 -9.5 -14.5t-13.5 -21.5l-37 25q8 13 11 16q32 44 32 60v28h-43v114h91zM124 114v-129q0 -22 -5.5 -35.5t-25.5 -42.5q-1 -2 -9.5 -14.5t-13.5 -21.5l-37 25l4.5 6.5t4 6t2.5 3.5q32 44 32 60v28h-43v114h91z" />
    <glyph glyph-name="dagger" unicode="&#x2020;" horiz-adv-x="511" 
d="M479 463v-69h-185v-532h-78v532h-184v69h184v204h78v-204h185z" />
    <glyph glyph-name="daggerdbl" unicode="&#x2021;" horiz-adv-x="511" 
d="M478 486v-68h-185v-306h185v-68h-185v-182h-77v182h-184v68h184v306h-184v68h184v181h77v-181h185z" />
    <glyph glyph-name="bullet" unicode="&#x2022;" horiz-adv-x="328" 
d="M162 420h1q34 0 58 -23.5t24 -57.5t-23.5 -58t-57.5 -24t-58 23.5t-24 58.5q0 33 24 57t56 24z" />
    <glyph glyph-name="ellipsis" unicode="&#x2026;" horiz-adv-x="535" 
d="M34 0v113h93v-113h-93zM220 0v113h93v-113h-93zM407 0v113h93v-113h-93z" />
    <glyph glyph-name="perthousand" unicode="&#x2030;" horiz-adv-x="1249" 
d="M191 649q76 0 120 -58.5t44 -159.5q0 -124 -61 -179q-43 -38 -101 -38q-73 0 -118.5 59.5t-45.5 156.5q0 101 43.5 160t118.5 59zM191 587q-44 0 -66 -38q-26 -49 -26 -121q0 -71 24.5 -112.5t65.5 -41.5q95 0 95 160q0 74 -24 113.5t-69 39.5zM680 426q77 0 122.5 -60.5
t45.5 -161.5q0 -98 -44.5 -155.5t-121.5 -57.5q-74 0 -117 58.5t-43 158.5t42.5 159t115.5 59zM682 365q-90 0 -90 -155q0 -158 89 -158q95 0 95 164q0 71 -24.5 110t-69.5 39zM1058 426q77 0 122.5 -60.5t45.5 -161.5q0 -98 -44.5 -155.5t-121.5 -57.5q-74 0 -117 58.5
t-43 158.5t42.5 159t115.5 59zM1060 365q-90 0 -90 -155q0 -158 89 -158q95 0 95 164q0 71 -24.5 110t-69.5 39zM200 0l401 640h73l-402 -640h-72z" />
    <glyph glyph-name="guilsinglleft" unicode="&#x2039;" horiz-adv-x="226" 
d="M175 113l-135 112v100l135 112v-97l-86 -65l86 -65v-97z" />
    <glyph glyph-name="guilsinglright" unicode="&#x203a;" horiz-adv-x="226" 
d="M51 437l135 -112v-100l-135 -112v97l86 65l-86 65v97z" />
    <glyph glyph-name="uni203E" unicode="&#x203e;" 
d="M500 837v-72h-500v72h500z" />
    <glyph glyph-name="fraction" unicode="&#x2044;" horiz-adv-x="176" 
d="M311 658l-393 -658h-52l394 658h51z" />
    <glyph glyph-name="Euro" unicode="&#x20ac;" horiz-adv-x="537" 
d="M179 388h261l-22 -48h-245q-1 -9 -1 -21q0 -1 0.5 -5t1 -11.5t0.5 -14.5h221l-21 -48h-194q10 -44 22 -72q25 -50 70 -78.5t101 -28.5q32 0 57.5 9t63.5 35v-92q-92 -29 -143 -29q-62 0 -123 35.5t-93 90.5t-44 130h-85l21 48h58q-1 13 -1 31q0 10 1 21h-79l21 48h62
q18 123 93.5 191.5t192.5 68.5q48 0 82.5 -11t74.5 -38l-33 -75q-51 49 -126 49q-76 0 -126.5 -48t-67.5 -137z" />
    <glyph glyph-name="trademark" unicode="&#x2122;" horiz-adv-x="854" 
d="M22 619v48h301v-48h-124v-352h-52v352h-125zM384 267v400h85l112 -328l112 328h85v-400h-50v360l-123 -360h-46l-125 360v-360h-50z" />
    <glyph glyph-name="uni2126" unicode="&#x2126;" horiz-adv-x="667" 
d="M9 0v69h187q-179 104 -179 292q0 137 91 229.5t226 92.5q122 0 210 -78q107 -94 107 -244q0 -189 -180 -292h187v-69h-274v65q185 102 185 288q0 114 -75 192q-67 68 -158 68q-103 0 -170 -73t-67 -185q0 -189 185 -290v-65h-275z" />
    <glyph glyph-name="partialdiff" unicode="&#x2202;" 
d="M94 635l16 41q68 -5 118 -27t107 -72q58 -51 93.5 -138t35.5 -176q0 -125 -60.5 -199.5t-161.5 -74.5q-92 0 -156 65t-64 159q0 92 63.5 157.5t152.5 65.5q77 0 148 -63q-7 60 -44 120t-83 86q-89 51 -165 56zM249 376q-68 0 -113.5 -47t-45.5 -117q0 -67 45 -115
t108 -48q64 0 108.5 48t44.5 118q0 69 -42 115t-105 46z" />
    <glyph glyph-name="Delta" unicode="&#x2206;" horiz-adv-x="667" 
d="M5 0l282 667h87l289 -667h-658zM100 58h466l-235 542z" />
    <glyph glyph-name="product" unicode="&#x220f;" horiz-adv-x="667" 
d="M0 750h667v-52h-90v-896h90v-52h-249v52h93v896h-356v-896h92v-52h-247v52h90v896h-90v52z" />
    <glyph glyph-name="summation" unicode="&#x2211;" horiz-adv-x="667" 
d="M601 750v-225h-55l-8 173h-435l256 -426l-259 -470h450l4 173h56v-225h-587v56l260 467l-260 423v54h578z" />
    <glyph glyph-name="minus" unicode="&#x2212;" horiz-adv-x="538" 
d="M33 177v63h469v-63h-469z" />
    <glyph glyph-name="uni2215" unicode="&#x2215;" horiz-adv-x="176" 
d="M311 658l-393 -658h-52l394 658h51z" />
    <glyph glyph-name="uni2219" unicode="&#x2219;" horiz-adv-x="93" 
d="M0 290v113h93v-113h-93z" />
    <glyph glyph-name="radical" unicode="&#x221a;" horiz-adv-x="667" 
d="M637 788v-51h-143l-286 -752l-107 320h-71v52h113l69 -226l239 657h186z" />
    <glyph glyph-name="infinity" unicode="&#x221e;" horiz-adv-x="667" 
d="M333 383q83 109 183 109q68 0 110.5 -43t42.5 -112t-42 -113t-108 -44q-100 0 -185 110q-86 -110 -182 -110q-67 0 -110.5 44t-43.5 112t43.5 112t110.5 44q98 0 181 -109zM372 337q76 -96 147 -96q41 0 65.5 25.5t24.5 68.5t-25.5 69.5t-66.5 26.5q-39 0 -70 -20.5
t-75 -73.5zM295 336q-40 51 -73.5 73t-71.5 22q-41 0 -66.5 -26t-25.5 -69q0 -42 25.5 -68.5t66.5 -26.5q69 0 145 95z" />
    <glyph glyph-name="integral" unicode="&#x222b;" 
d="M423 609h-56v23q0 46 -9 64t-32 18q-41 0 -41 -68v-23v-37v-658q0 -62 -2 -81t-9 -37q-26 -60 -91 -60q-106 0 -105 154h59q0 -58 3 -75q9 -42 42 -42q24 0 33 18q9 19 9 100v650q0 74 3.5 101.5t15.5 49.5q24 44 81 44q25 0 46.5 -10.5t30.5 -26.5q17 -29 22 -104z" />
    <glyph glyph-name="approxequal" unicode="&#x2248;" 
d="M456 517l38 -36q-36 -63 -66.5 -89.5t-67.5 -26.5q-18 0 -40 8t-118 50q-41 18 -63 18q-24 0 -45 -20t-50 -70l-37 37q36 62 66.5 88t66.5 26q22 0 46.5 -9t126.5 -54q31 -13 48 -13q46 0 95 91zM456 341l38 -35q-36 -63 -66.5 -90t-67.5 -27q-18 0 -40 8t-118 50
q-41 18 -63 18q-24 0 -45 -20t-50 -70l-37 37q36 61 67 87.5t66 26.5q22 0 46.5 -9t126.5 -54q31 -13 48 -13q46 0 95 91z" />
    <glyph glyph-name="notequal" unicode="&#x2260;" 
d="M275 447l61 122l56 -23l-49 -99h151v-61h-182l-52 -104h234v-61h-265l-66 -134l-57 22l56 112h-155v61h185l53 104h-238v61h268z" />
    <glyph glyph-name="lessequal" unicode="&#x2264;" 
d="M491 608v-68l-400 -173l400 -171v-67l-481 203v69zM491 104v-72h-481v72h481z" />
    <glyph glyph-name="greaterequal" unicode="&#x2265;" 
d="M10 129v67l400 173l-400 171v68l481 -204v-68zM491 104v-72h-481v72h481z" />
    <glyph glyph-name="lozenge" unicode="&#x25ca;" horiz-adv-x="667" 
d="M333 682l253 -347l-253 -350l-251 350zM333 590l-178 -255l178 -255l180 255z" />
    </font>
</defs>
</svg>
